<?xml version="1.0" standalone="no"?>
<!DOCTYPE svg PUBLIC "-//W3C//DTD SVG 20010904//EN"
 "http://www.w3.org/TR/2001/REC-SVG-20010904/DTD/svg10.dtd">
<svg version="1.0" xmlns="http://www.w3.org/2000/svg"
 width="200.000000pt" height="200.000000pt" viewBox="0 0 200.000000 200.000000"
 preserveAspectRatio="xMidYMid meet">

<g transform="translate(0.000000,200.000000) scale(0.100000,-0.100000)"
fill="#000000" stroke="none">
<path d="M1166 1579 c-92 -23 -199 -99 -253 -181 l-24 -36 -57 20 c-153 54
-320 -20 -395 -175 -21 -44 -33 -57 -50 -57 -47 0 -142 -56 -195 -116 -153
-171 -105 -436 100 -550 l53 -29 658 -3 659 -3 52 24 c115 53 177 142 184 267
3 60 0 86 -18 129 -27 69 -67 119 -120 151 l-41 25 5 52 c17 192 -80 365 -253
451 -68 33 -82 37 -170 39 -53 1 -113 -2 -135 -8z m253 -125 c167 -76 245
-274 173 -437 l-20 -44 55 -13 c41 -9 67 -23 99 -52 52 -48 68 -91 62 -168 -6
-78 -40 -129 -109 -164 l-53 -26 -601 0 c-513 0 -608 2 -646 15 -140 48 -208
207 -145 340 43 92 126 144 229 145 l57 0 0 41 c0 55 42 131 91 164 45 32 137
44 191 26 43 -14 105 -72 124 -115 l13 -31 1 31 c0 59 40 152 87 204 103 114
255 147 392 84z"/>
</g>
</svg>
