<?xml version="1.0" standalone="no"?>
<!DOCTYPE svg PUBLIC "-//W3C//DTD SVG 20010904//EN"
 "http://www.w3.org/TR/2001/REC-SVG-20010904/DTD/svg10.dtd">
<svg version="1.0" xmlns="http://www.w3.org/2000/svg"
 width="225.000000pt" height="225.000000pt" viewBox="0 0 225.000000 225.000000"
 preserveAspectRatio="xMidYMid meet">
<metadata>
Created by potrace 1.16, written by Peter Selinger 2001-2019
</metadata>
<g transform="translate(0.000000,225.000000) scale(0.100000,-0.100000)"
fill="#000000" stroke="none">
<path d="M361 2064 c-51 -36 -51 -42 -51 -641 0 -511 1 -561 18 -593 31 -64
58 -70 310 -70 171 0 222 -3 222 -12 -1 -28 -30 -64 -72 -89 -23 -14 -43 -32
-43 -40 0 -12 56 -14 375 -14 360 0 375 1 375 19 0 12 -12 22 -35 30 -26 8
-41 22 -58 56 l-22 45 232 5 c192 4 238 8 264 22 60 33 59 21 62 628 2 377 0
567 -8 592 -6 20 -22 46 -37 57 -25 21 -34 21 -767 21 -669 0 -744 -2 -765
-16z m1387 -551 l-3 -388 -625 0 -625 0 -3 388 -2 387 630 0 630 0 -2 -387z"/>
<path d="M152 367 c-115 -115 -132 -136 -132 -165 l0 -32 1105 0 1105 0 0 31
c0 26 -21 52 -127 165 l-128 134 -845 0 -845 0 -133 -133z"/>
</g>
</svg>
