<?xml version="1.0" standalone="no"?>
<!DOCTYPE svg PUBLIC "-//W3C//DTD SVG 20010904//EN"
 "http://www.w3.org/TR/2001/REC-SVG-20010904/DTD/svg10.dtd">
<svg version="1.0" xmlns="http://www.w3.org/2000/svg"
 width="512.000000pt" height="512.000000pt" viewBox="0 0 512.000000 512.000000"
 preserveAspectRatio="xMidYMid meet">

<g transform="translate(0.000000,512.000000) scale(0.100000,-0.100000)"
fill="#000000" stroke="none">
<path d="M2310 4780 c-333 -59 -590 -189 -834 -420 -179 -171 -315 -386 -396
-629 -51 -151 -71 -264 -77 -432 -7 -164 8 -303 48 -457 63 -246 117 -345 972
-1800 205 -348 385 -647 401 -663 76 -78 198 -78 272 1 44 46 977 1634 1181
2010 191 353 236 511 237 840 1 226 -12 318 -74 501 -161 484 -553 864 -1036
1004 -226 66 -482 82 -694 45z m465 -740 c253 -81 438 -258 520 -500 142 -419
-103 -876 -535 -996 -91 -26 -309 -26 -400 0 -432 120 -677 577 -535 996 91
267 312 460 596 520 77 16 275 5 354 -20z"/>
</g>
</svg>
