<?xml version="1.0" standalone="no"?>
<!DOCTYPE svg PUBLIC "-//W3C//DTD SVG 20010904//EN"
 "http://www.w3.org/TR/2001/REC-SVG-20010904/DTD/svg10.dtd">
<svg version="1.0" xmlns="http://www.w3.org/2000/svg"
 width="620.000000pt" height="300.000000pt" viewBox="0 0 620.000000 300.000000"
 preserveAspectRatio="xMidYMid meet">
<metadata>
Created by potrace 1.16, written by Peter Selinger 2001-2019
</metadata>
<g transform="translate(0.000000,300.000000) scale(0.100000,-0.100000)"
fill="#000000" stroke="none">
<path d="M2688 2470 c-59 -3 -109 -8 -111 -10 -2 -3 -10 -47 -18 -99 l-14 -93
-50 -19 -50 -19 -64 63 c-36 34 -68 65 -71 69 -3 4 -63 -31 -133 -77 l-127
-85 19 -48 c10 -26 27 -66 36 -90 l18 -43 -42 -43 -42 -43 -62 17 c-129 35
-107 48 -183 -106 -41 -81 -64 -138 -58 -142 64 -43 134 -108 130 -121 -3 -9
-10 -36 -15 -60 -5 -24 -14 -47 -20 -51 -6 -3 -42 -14 -81 -24 l-70 -18 0 -42
c0 -83 13 -266 19 -266 3 0 17 18 30 40 17 27 38 45 73 59 49 20 60 37 33 47
-11 5 -15 24 -15 80 0 69 10 94 24 59 3 -10 19 -15 42 -15 27 0 37 -5 41 -20
3 -11 9 -20 14 -20 13 0 11 -27 -2 -49 -20 -32 -3 -65 45 -88 100 -49 194
-265 138 -316 -10 -10 -22 -17 -27 -17 -4 0 -25 -16 -47 -35 -53 -49 -67 -53
-191 -60 -99 -6 -107 -9 -112 -28 -45 -208 -59 -323 -61 -496 -2 -112 -7 -188
-13 -194 -16 -16 -13 -27 7 -27 23 0 53 92 83 255 11 61 29 144 40 185 10 41
27 111 37 154 10 44 22 75 25 69 4 -6 12 -143 18 -304 6 -162 12 -307 12 -324
2 -25 7 -31 30 -33 16 -2 36 -1 44 2 14 6 13 9 -3 27 -11 12 -18 29 -17 38 2
9 12 126 23 260 11 135 22 245 23 246 1 1 24 9 50 19 l48 18 57 -53 c31 -29
58 -54 60 -55 2 -1 -4 -29 -12 -62 -9 -33 -16 -63 -16 -66 0 -3 59 -36 132
-72 l132 -66 46 50 45 50 82 -16 82 -16 16 -60 17 -61 146 9 c81 4 148 9 150
11 1 1 7 29 13 63 l11 60 83 29 84 29 44 -44 44 -44 126 84 125 83 -25 63 -25
62 39 43 c21 23 46 52 55 65 16 23 16 23 69 8 71 -22 74 -21 93 18 16 34 15
39 -42 251 -67 245 -69 229 31 241 47 6 60 3 86 -15 37 -26 75 -21 66 9 -4 11
0 22 10 27 13 8 14 29 9 156 l-7 147 -36 6 c-20 3 -43 6 -51 7 -11 2 -20 31
-33 111 -17 108 -17 110 2 129 15 16 17 24 8 38 -10 16 -12 16 -22 -4 -25 -51
-101 -57 -177 -15 -43 25 -45 35 -24 153 7 39 12 72 10 73 -1 2 -28 -6 -59
-17 l-56 -21 -45 37 c-24 21 -44 42 -44 48 0 6 7 37 15 70 24 92 15 105 -125
175 l-118 59 -62 -75 -62 -76 -51 7 c-29 4 -55 12 -58 18 -4 5 -17 47 -29 93
l-23 84 -41 -2 c-23 0 -89 -4 -148 -8z m215 -735 c86 -22 155 -61 212 -119 59
-61 89 -118 112 -211 41 -169 -50 -364 -213 -456 l-53 -30 35 -102 c20 -56 44
-113 55 -128 19 -28 16 -39 -11 -39 -32 0 -156 148 -166 199 -4 17 -9 31 -13
31 -3 -1 -25 -43 -49 -93 -33 -70 -49 -93 -64 -94 -16 -2 -19 2 -13 20 4 12
10 59 13 105 8 93 10 92 -72 67 -76 -23 -110 -20 -151 16 -47 42 -45 62 10 88
25 12 51 21 59 21 20 0 29 17 14 26 -6 4 -36 6 -65 5 l-54 -2 -68 68 c-82 81
-91 106 -55 158 29 43 26 75 -8 112 -20 22 -20 23 -2 29 10 4 29 16 40 26 21
19 22 19 26 -12 3 -17 -1 -42 -9 -57 -19 -38 -16 -71 7 -78 29 -9 15 -25 -22
-25 l-30 0 33 -38 c19 -20 50 -58 69 -84 27 -35 43 -47 68 -50 17 -2 32 -3 32
-2 0 2 -9 19 -21 39 -12 19 -18 42 -15 50 5 15 -3 26 -54 66 l-25 19 27 -11
c34 -15 56 -6 68 26 13 35 -4 68 -50 99 -22 14 -47 44 -60 70 l-22 46 26 44
c56 95 156 170 267 200 71 19 122 19 192 1z"/>
<path d="M4981 2140 c-57 -14 -114 -60 -144 -120 -26 -50 -28 -62 -23 -125 l5
-71 -244 -244 -244 -244 -89 0 c-79 -1 -93 -4 -130 -29 -61 -40 -95 -96 -100
-165 l-4 -57 63 62 64 62 62 -16 62 -15 16 -53 c8 -29 15 -60 15 -69 0 -8 -31
-46 -70 -85 -53 -53 -66 -70 -54 -75 30 -11 125 -6 162 10 98 40 156 155 132
259 l-9 40 246 247 246 246 71 -5 c51 -3 81 -1 107 11 74 31 125 92 143 171 7
29 6 29 -42 -19 l-50 -49 -69 17 c-38 9 -73 20 -80 24 -6 4 -20 41 -31 82
l-21 75 65 66 c62 62 64 67 42 72 -28 8 -53 7 -97 -3z"/>
<path d="M4815 891 c-3 -2 -5 -159 -5 -348 l0 -344 -42 -20 -43 -19 59 2 59 3
29 95 c26 84 29 105 25 185 -4 69 -1 101 12 140 l18 50 21 -50 c12 -27 26 -57
32 -65 19 -28 57 -114 96 -219 l38 -104 -22 -17 -21 -18 21 -5 c12 -3 30 -1
41 5 18 9 19 18 14 112 -6 110 -16 148 -58 216 -17 28 -44 111 -73 223 -25 99
-46 181 -46 184 0 6 -149 0 -155 -6z"/>
</g>
</svg>
