<?xml version="1.0" standalone="no"?>
<!DOCTYPE svg PUBLIC "-//W3C//DTD SVG 20010904//EN"
 "http://www.w3.org/TR/2001/REC-SVG-20010904/DTD/svg10.dtd">
<svg version="1.0" xmlns="http://www.w3.org/2000/svg"
 width="301.000000pt" height="604.000000pt" viewBox="0 0 301.000000 604.000000"
 preserveAspectRatio="xMidYMid meet">

<g transform="translate(0.000000,604.000000) scale(0.100000,-0.100000)"
fill="#000000" stroke="none">
<path d="M858 5923 c12 -2 30 -2 40 0 9 3 -1 5 -23 4 -22 0 -30 -2 -17 -4z"/>
<path d="M1262 5923 c192 -2 504 -2 695 0 192 1 35 2 -347 2 -382 0 -539 -1
-348 -2z"/>
<path d="M698 5913 c18 -2 45 -2 60 0 15 2 0 4 -33 4 -33 0 -45 -2 -27 -4z"/>
<path d="M2388 5913 c18 -2 45 -2 60 0 15 2 0 4 -33 4 -33 0 -45 -2 -27 -4z"/>
<path d="M593 5894 c-3 -8 -12 -13 -19 -10 -8 3 -14 1 -14 -4 0 -5 -10 -12
-22 -15 -42 -12 -125 -75 -156 -118 -17 -24 -40 -70 -51 -103 -11 -32 -20 -52
-21 -42 0 36 44 128 86 176 24 28 67 62 96 76 29 14 45 26 37 26 -31 0 -125
-67 -160 -114 -71 -94 -82 -148 -87 -431 -2 -137 -8 -258 -13 -267 -13 -24
-11 -352 2 -365 7 -7 8 -43 4 -104 -12 -191 -16 -442 -6 -448 5 -4 11 -600 14
-1566 3 -858 8 -1578 10 -1600 3 -22 8 -51 10 -65 2 -14 5 -33 6 -43 1 -11 6
-15 13 -11 8 5 9 2 5 -9 -3 -10 -2 -17 4 -17 6 0 7 -5 3 -11 -4 -7 4 -20 17
-31 13 -11 17 -16 9 -12 -8 4 3 -10 26 -32 22 -21 26 -28 10 -14 -30 24 -30
24 -11 1 23 -27 82 -71 71 -52 -5 8 3 7 25 -4 40 -21 52 -31 24 -21 -13 5 -16
4 -10 -2 18 -17 85 -34 113 -28 15 3 41 2 57 -3 23 -7 25 -10 10 -12 -127 -15
1570 -25 1740 -10 39 3 -141 5 -400 5 l-470 -2 445 8 c478 9 515 11 595 41
119 44 208 138 236 249 10 38 15 47 20 33 11 -28 11 -45 15 1436 3 926 8 1388
14 1397 13 15 12 374 -1 374 -5 0 -9 279 -9 693 0 738 -2 774 -50 867 -33 64
-96 127 -157 156 -30 14 -57 24 -59 21 -2 -2 15 -12 38 -23 59 -26 135 -99
165 -157 47 -93 53 -155 51 -507 l-2 -325 -6 350 c-5 242 -11 362 -19 390 -35
106 -100 188 -186 232 -27 14 -53 31 -57 37 -4 6 -8 7 -8 2 0 -4 -11 -1 -25 8
-13 9 -32 16 -42 15 -13 -1 -10 -3 7 -9 14 -5 -22 -5 -80 -2 -135 9 -1626 9
-1745 1 -49 -4 -76 -3 -60 1 l30 8 -28 1 c-17 1 -30 -5 -34 -15z m-133 -97 c0
-2 -17 -19 -37 -38 l-38 -34 34 38 c33 34 41 42 41 34z m-153 -239 c-3 -8 -6
-5 -6 6 -1 11 2 17 5 13 3 -3 4 -12 1 -19z m988 11 c11 -17 -3 -23 -20 -9 -10
8 -15 9 -15 2 0 -6 9 -16 20 -22 23 -13 27 -45 5 -54 -21 -8 -45 3 -45 20 0
17 17 18 23 2 2 -7 8 -10 13 -5 4 4 -2 14 -14 23 -31 21 -29 54 2 54 14 0 28
-5 31 -11z m89 -11 c9 -35 7 -80 -3 -73 -5 3 -13 20 -17 38 l-8 32 -6 -33 c-7
-44 -26 -37 -21 8 4 44 8 50 30 50 11 0 21 -10 25 -22z m84 -5 l10 -28 1 28
c1 20 6 27 21 27 17 0 20 -7 20 -40 0 -22 0 -42 0 -45 0 -3 -3 -5 -7 -5 -5 0
-10 12 -12 27 l-4 28 -6 -30 c-7 -34 -24 -40 -29 -10 -6 32 -24 44 -20 13 1
-15 -1 -28 -7 -30 -5 -2 -11 18 -13 45 -3 41 -1 47 17 47 12 0 23 -10 29 -27z
m142 11 c0 -14 -3 -14 -15 -4 -8 7 -15 8 -15 3 0 -5 9 -17 21 -26 23 -20 21
-35 -4 -51 -13 -8 -21 -6 -34 6 -20 21 -10 36 12 18 22 -19 18 0 -6 26 -25 26
-18 44 17 44 15 0 24 -6 24 -16z m58 -16 c-2 -18 1 -34 7 -35 5 -2 8 13 6 32
-1 20 2 35 8 35 16 0 14 -87 -1 -93 -7 -2 -21 0 -30 5 -24 12 -26 88 -2 88 12
0 15 -8 12 -32z m106 16 c9 -24 6 -42 -4 -19 -7 16 -9 13 -9 -17 -1 -54 -21
-47 -21 7 0 32 4 45 14 45 8 0 17 -7 20 -16z m31 -72 c-3 -3 -11 0 -18 8 -9
10 -9 11 1 6 9 -5 12 5 14 36 l1 43 4 -44 c3 -23 2 -46 -2 -49z m52 26 c-2
-13 -4 -5 -4 17 -1 22 1 32 4 23 2 -10 2 -28 0 -40z m911 -2270 l-3 -2123
-1197 -2 -1198 -3 0 2125 0 2125 1200 0 1200 0 -2 -2122z m-2471 1970 c-3 -8
-6 -5 -6 6 -1 11 2 17 5 13 3 -3 4 -12 1 -19z m2550 -440 c-3 -7 -5 -2 -5 12
0 14 2 19 5 13 2 -7 2 -19 0 -25z m0 -3750 c-3 -8 -6 -5 -6 6 -1 11 2 17 5 13
3 -3 4 -12 1 -19z m-1507 -11 c0 -2 -12 -14 -26 -28 -25 -22 -26 -23 -15 -2 9
18 19 26 39 32 1 1 2 0 2 -2z m178 -404 c-15 -2 -42 -2 -60 0 -18 2 -6 4 27 4
33 0 48 -2 33 -4z"/>
<path d="M571 5175 c1 -41 3 -45 8 -20 6 27 8 28 18 11 10 -18 33 -15 33 5 0
6 -4 8 -9 5 -5 -4 -19 6 -30 21 l-20 28 0 -50z"/>
<path d="M637 5207 c-7 -18 3 -67 14 -67 12 0 12 67 0 74 -5 3 -11 0 -14 -7z"/>
<path d="M788 5209 c-21 -12 -24 -49 -6 -67 15 -15 45 -16 54 -1 4 7 0 9 -14
5 -26 -9 -45 20 -31 47 7 12 16 16 31 11 14 -4 18 -2 14 5 -9 14 -25 14 -48 0z"/>
<path d="M858 5214 c-11 -10 -10 -56 2 -74 5 -8 10 -12 12 -10 7 10 -7 92 -14
84z"/>
<path d="M676 5175 c4 -11 8 -30 8 -42 1 -13 3 -23 6 -23 9 0 39 80 29 80 -5
0 -9 -7 -9 -15 0 -20 -10 -19 -27 3 -14 16 -14 16 -7 -3z"/>
<path d="M915 5181 c19 -8 19 -8 -3 -15 -28 -9 -24 -31 6 -32 18 -1 22 4 22
27 0 24 -4 29 -22 28 -22 0 -22 -1 -3 -8z m15 -25 c0 -3 -4 -8 -10 -11 -5 -3
-10 -1 -10 4 0 6 5 11 10 11 6 0 10 -2 10 -4z"/>
<path d="M960 5175 c0 -8 7 -15 15 -15 21 0 19 -18 -2 -23 -16 -4 -16 -5 -1
-6 25 -2 34 20 14 35 -16 12 -16 13 1 17 14 4 14 5 -4 6 -14 1 -23 -5 -23 -14z"/>
<path d="M1020 5175 c0 -8 7 -15 15 -15 21 0 19 -18 -2 -23 -16 -4 -16 -5 -1
-6 25 -2 34 20 14 35 -16 12 -16 13 1 17 14 4 14 5 -4 6 -14 1 -23 -5 -23 -14z"/>
<path d="M1077 5178 c-10 -30 31 -65 47 -39 4 5 -3 7 -14 4 -11 -3 -20 0 -20
6 0 6 9 11 21 11 27 0 20 24 -8 28 -12 2 -23 -3 -26 -10z m40 -4 c-3 -3 -12
-4 -19 -1 -8 3 -5 6 6 6 11 1 17 -2 13 -5z"/>
<path d="M1145 5180 c-3 -6 1 -13 9 -16 9 -3 16 -11 16 -16 0 -6 -7 -7 -16 -4
-8 3 -12 2 -9 -4 8 -13 32 -13 41 1 4 7 -1 16 -12 22 -17 10 -17 11 1 18 19 7
19 8 -2 8 -12 1 -25 -4 -28 -9z"/>
<path d="M2402 4938 c-30 -30 -3 -82 40 -77 13 2 29 -1 37 -5 11 -7 12 -6 5 5
-4 8 -7 24 -5 37 5 43 -47 70 -77 40z m63 -19 c14 -42 -45 -66 -61 -24 -10 25
4 45 30 45 16 0 27 -7 31 -21z"/>
<path d="M2410 4623 c0 -23 27 -35 49 -21 12 7 21 17 21 22 0 5 -8 2 -18 -7
-17 -15 -19 -15 -35 0 -9 10 -17 12 -17 6z"/>
<path d="M635 4398 c-39 -21 -65 -52 -71 -84 -9 -48 13 -102 50 -125 30 -18
62 -19 954 -19 1019 0 964 -4 996 64 21 45 20 74 -4 114 -40 65 3 62 -997 62
-644 -1 -914 -4 -928 -12z m972 -85 c2 -6 -4 -10 -13 -9 -26 2 -28 -23 -3 -32
13 -5 18 -11 12 -15 -19 -12 -43 4 -43 27 0 37 37 60 47 29z m-197 -12 c14
-28 12 -41 -5 -35 -8 4 -22 1 -30 -6 -18 -15 -20 -1 -3 35 13 30 24 32 38 6z
m64 -8 c-9 -37 -21 -50 -35 -36 -14 14 -7 49 9 46 7 -2 12 2 12 7 0 6 5 10 10
10 6 0 8 -11 4 -27z m56 -2 c0 -28 -22 -47 -41 -35 -15 9 -10 44 6 44 8 0 15
5 15 10 0 6 5 10 10 10 6 0 10 -13 10 -29z m123 -17 c13 -2 15 1 7 11 -7 9 -7
15 -1 19 5 4 12 2 16 -4 4 -7 12 -7 25 0 13 7 21 7 25 0 3 -5 0 -10 -7 -10
-10 0 -10 -2 1 -9 24 -15 3 -27 -46 -26 -48 0 -48 1 -50 35 -1 29 0 30 5 10 4
-14 15 -26 25 -26z m112 16 c-3 -4 1 -11 7 -13 10 -4 9 -8 -2 -16 -24 -17 -29
-13 -26 17 5 35 4 34 16 27 6 -4 8 -10 5 -15z"/>
<path d="M1440 4280 c0 -5 5 -10 10 -10 6 0 10 5 10 10 0 6 -4 10 -10 10 -5 0
-10 -4 -10 -10z"/>
<path d="M1495 4280 c-3 -5 -1 -10 4 -10 6 0 11 5 11 10 0 6 -2 10 -4 10 -3 0
-8 -4 -11 -10z"/>
<path d="M1548 3753 c7 -3 16 -2 19 1 4 3 -2 6 -13 5 -11 0 -14 -3 -6 -6z"/>
<path d="M1467 3729 c-90 -68 -69 -226 33 -253 17 -5 13 0 -12 14 -45 24 -68
65 -68 120 0 55 23 96 68 119 20 11 30 20 22 20 -8 0 -28 -9 -43 -20z"/>
<path d="M1610 3734 c53 -23 75 -59 75 -125 0 -62 -14 -86 -70 -120 -16 -11
-25 -19 -20 -19 25 0 78 44 91 75 29 70 8 150 -48 185 -18 11 -40 20 -48 19
-8 0 1 -7 20 -15z"/>
<path d="M1545 3663 c17 -3 36 -9 43 -15 8 -7 12 -7 12 0 0 13 -26 22 -58 21
-26 -2 -26 -2 3 -6z"/>
<path d="M1503 3610 c0 -25 2 -35 4 -22 2 12 2 32 0 45 -2 12 -4 2 -4 -23z"/>
<path d="M1540 3630 c0 -5 7 -10 15 -10 8 0 15 5 15 10 0 6 -7 10 -15 10 -8 0
-15 -4 -15 -10z"/>
<path d="M1586 3611 c-5 -7 -3 -18 3 -24 6 -6 11 -15 11 -19 0 -16 -22 -8 -41
15 l-18 22 -1 -22 c0 -13 -5 -23 -12 -23 -6 0 -8 -3 -4 -7 4 -5 13 0 21 10 11
15 13 16 19 2 6 -16 31 -20 40 -7 3 5 2 22 -3 37 -5 21 -10 25 -15 16z"/>
<path d="M1543 3463 c9 -2 23 -2 30 0 6 3 -1 5 -18 5 -16 0 -22 -2 -12 -5z"/>
<path d="M1372 3333 c1 -37 1 -37 5 -5 4 31 12 39 26 25 4 -3 2 -12 -3 -18 -7
-9 -6 -16 4 -24 12 -10 14 -7 13 21 -2 26 -7 34 -24 36 -21 3 -23 -1 -21 -35z"/>
<path d="M1492 3339 l-2 -37 50 0 c42 0 50 3 50 19 0 24 -18 33 -35 19 -12
-10 -18 -10 -29 -1 -12 10 -13 8 -9 -8 3 -12 1 -21 -5 -21 -6 0 -13 15 -15 33
l-4 32 -1 -36z m88 -20 c0 -5 -4 -9 -10 -9 -5 0 -10 7 -10 16 0 8 5 12 10 9 6
-3 10 -10 10 -16z"/>
<path d="M1602 3334 c2 -15 10 -29 18 -32 12 -3 12 -2 3 8 -6 7 -9 18 -7 25 3
7 0 16 -6 20 -8 5 -10 -2 -8 -21z"/>
<path d="M1433 3334 c-3 -8 1 -22 9 -30 13 -13 16 -13 28 0 10 13 10 19 0 31
-16 19 -29 19 -37 -1z m37 -15 c0 -5 -7 -9 -15 -9 -15 0 -20 12 -9 23 8 8 24
-1 24 -14z"/>
<path d="M1667 3343 c-4 -3 -7 -15 -7 -25 0 -12 7 -18 23 -17 16 1 18 2 5 6
-21 5 -23 14 -6 31 7 7 8 12 2 12 -6 0 -14 -3 -17 -7z"/>
<path d="M1714 3338 c-4 -6 -2 -14 4 -16 7 -2 12 -8 12 -13 0 -6 -5 -7 -12 -3
-7 5 -8 3 -3 -5 5 -9 10 -10 18 -2 7 7 6 15 -2 25 -9 11 -9 15 1 19 9 4 9 6 1
6 -6 1 -15 -4 -19 -11z"/>
<path d="M1642 3320 c0 -14 2 -19 5 -12 2 6 2 18 0 25 -3 6 -5 1 -5 -13z"/>
<path d="M1230 3120 c-27 -27 -35 -65 -20 -99 13 -31 39 -48 50 -32 4 7 16 5
34 -4 69 -36 120 72 61 130 -31 32 -96 34 -125 5z m95 -20 c3 -5 -1 -10 -9
-10 -9 0 -16 -7 -16 -15 0 -8 9 -15 20 -15 13 0 18 -5 13 -16 -4 -11 -9 -12
-16 -5 -17 17 -31 13 -17 -4 7 -8 10 -15 7 -15 -3 0 -12 -2 -19 -5 -8 -3 -24
3 -36 13 -23 20 -29 42 -12 42 6 0 10 9 10 20 0 16 7 20 34 20 19 0 38 -4 41
-10z"/>
<path d="M1260 3074 c0 -8 5 -12 10 -9 6 3 10 10 10 16 0 5 -4 9 -10 9 -5 0
-10 -7 -10 -16z"/>
<path d="M1613 2224 l-28 -26 29 21 c28 20 40 21 337 21 l307 0 34 -26 33 -26
-33 31 -32 31 -310 0 -309 0 -28 -26z"/>
<path d="M2321 2164 c0 -11 3 -14 6 -6 3 7 2 16 -1 19 -3 4 -6 -2 -5 -13z"/>
<path d="M1571 2145 c-2 -45 44 -105 79 -104 10 0 8 3 -5 8 -32 14 -58 48 -65
89 -7 35 -8 35 -9 7z"/>
<path d="M1963 2155 c-3 -9 -3 -18 -1 -21 3 -3 8 4 11 16 6 23 -1 27 -10 5z"/>
<path d="M2022 2145 c0 -16 2 -22 5 -12 2 9 2 23 0 30 -3 6 -5 -1 -5 -18z"/>
<path d="M1871 2134 c0 -11 3 -14 6 -6 3 7 2 16 -1 19 -3 4 -6 -2 -5 -13z"/>
<path d="M2071 2124 c0 -11 3 -14 6 -6 3 7 2 16 -1 19 -3 4 -6 -2 -5 -13z"/>
<path d="M2317 2110 c-4 -19 -18 -37 -39 -50 -18 -11 -27 -20 -20 -20 21 0 72
56 72 79 0 30 -7 26 -13 -9z"/>
<path d="M1483 1504 c-98 -50 -98 -210 -1 -260 69 -36 160 -13 199 49 16 25
19 45 16 90 -3 51 -8 62 -39 94 -31 31 -44 37 -90 40 -36 2 -63 -2 -85 -13z
m56 -111 l13 -28 14 28 c22 41 34 33 34 -24 0 -31 -4 -48 -10 -44 -5 3 -10 16
-10 28 0 20 0 20 -14 1 -14 -19 -15 -19 -29 0 -13 18 -14 18 -13 -2 2 -44 -19
-25 -22 21 -4 55 16 65 37 20z"/>
<path d="M2831 907 c-1 -23 -41 -105 -71 -145 -32 -43 -113 -96 -170 -113 -25
-7 -49 -17 -55 -22 -12 -11 15 -4 92 25 75 27 153 102 187 178 15 33 25 68 23
78 -4 16 -5 16 -6 -1z"/>
</g>
</svg>
