<?xml version="1.0" standalone="no"?>
<!DOCTYPE svg PUBLIC "-//W3C//DTD SVG 20010904//EN"
 "http://www.w3.org/TR/2001/REC-SVG-20010904/DTD/svg10.dtd">
<svg version="1.0" xmlns="http://www.w3.org/2000/svg"
 width="960.000000pt" height="960.000000pt" viewBox="0 0 960.000000 960.000000"
 preserveAspectRatio="xMidYMid meet">
<metadata>
Created by potrace 1.16, written by Peter Selinger 2001-2019
</metadata>
<g transform="translate(0.000000,960.000000) scale(0.100000,-0.100000)"
fill="#000000" stroke="none">
<path d="M4558 9593 c-27 -2 -48 -8 -48 -14 0 -5 -18 -9 -40 -9 -22 0 -40 -4
-40 -10 0 -5 -11 -10 -24 -10 -13 0 -29 -7 -36 -15 -7 -8 -23 -15 -36 -15 -13
0 -24 -4 -24 -10 0 -5 -11 -10 -25 -10 -14 0 -25 -4 -25 -10 0 -5 -9 -10 -20
-10 -11 0 -20 -4 -20 -10 0 -5 -9 -10 -20 -10 -11 0 -20 -4 -20 -10 0 -5 -6
-10 -14 -10 -8 0 -16 -7 -20 -15 -3 -8 -12 -15 -21 -15 -8 0 -15 -4 -15 -10 0
-5 -7 -10 -15 -10 -8 0 -15 -4 -15 -10 0 -5 -7 -10 -15 -10 -8 0 -15 -4 -15
-10 0 -5 -7 -10 -15 -10 -8 0 -15 -4 -15 -10 0 -5 -7 -10 -15 -10 -8 0 -15 -7
-15 -15 0 -8 -4 -15 -8 -15 -10 0 -113 -101 -167 -164 -22 -26 -46 -53 -52
-61 -7 -7 -13 -18 -13 -24 0 -6 -4 -11 -9 -11 -5 0 -14 -13 -21 -30 -7 -16
-16 -30 -21 -30 -5 0 -11 -11 -15 -25 -3 -14 -10 -25 -15 -25 -5 0 -9 -9 -9
-20 0 -11 -4 -20 -10 -20 -5 0 -10 -7 -10 -15 0 -8 -4 -24 -10 -35 -5 -11 -14
-29 -20 -40 -5 -11 -10 -29 -10 -40 0 -11 -4 -20 -10 -20 -5 0 -10 -13 -10
-29 0 -16 -7 -36 -15 -45 -8 -8 -15 -31 -15 -50 0 -20 -4 -36 -10 -36 -6 0
-10 -31 -10 -73 0 -40 -5 -78 -11 -84 -11 -11 -10 -48 7 -261 7 -92 0 -122
-27 -122 -11 0 -17 -5 -14 -10 4 -6 -7 -13 -24 -16 -17 -4 -31 -10 -31 -15 0
-5 -11 -9 -25 -9 -14 0 -25 -4 -25 -10 0 -5 -11 -10 -24 -10 -14 0 -28 -4 -31
-10 -3 -5 -17 -10 -31 -10 -13 0 -24 -4 -24 -10 0 -5 -13 -10 -30 -10 -16 0
-30 -4 -30 -9 0 -5 -16 -12 -36 -16 -20 -3 -44 -10 -53 -15 -9 -4 -29 -13 -46
-20 -16 -7 -38 -16 -47 -21 -10 -5 -29 -9 -43 -9 -14 0 -25 -4 -25 -10 0 -5
-11 -10 -25 -10 -14 0 -25 -4 -25 -10 0 -5 -15 -10 -34 -10 -21 0 -36 -6 -40
-15 -3 -8 -15 -15 -26 -15 -11 0 -20 -4 -20 -10 0 -5 -16 -10 -35 -10 -19 0
-35 -4 -35 -10 0 -5 -11 -10 -25 -10 -14 0 -25 -4 -25 -10 0 -5 -16 -10 -35
-10 -19 0 -35 -4 -35 -10 0 -5 -9 -10 -21 -10 -11 0 -27 -7 -35 -15 -9 -8 -26
-15 -39 -15 -13 0 -27 -4 -30 -10 -8 -13 -35 -13 -35 0 0 11 -7 21 -45 63 -11
13 -27 35 -36 51 -33 58 -238 276 -259 276 -6 0 -10 5 -10 10 0 6 -6 10 -13
10 -7 0 -19 9 -27 20 -8 11 -20 20 -26 20 -6 0 -23 11 -38 25 -15 14 -31 25
-37 25 -5 0 -9 5 -9 10 0 6 -11 10 -25 10 -14 0 -25 3 -25 8 0 10 -50 32 -72
32 -10 0 -18 5 -18 10 0 6 -6 10 -14 10 -7 0 -27 7 -42 15 -16 8 -37 15 -47
15 -10 0 -15 5 -12 10 4 6 -8 10 -29 10 -20 0 -36 5 -36 10 0 6 -17 10 -38 10
-21 0 -43 5 -48 10 -7 7 -93 9 -250 6 -246 -4 -334 -11 -334 -27 0 -5 -13 -9
-30 -9 -16 0 -30 -4 -30 -10 0 -5 -7 -10 -16 -10 -15 0 -66 -20 -106 -41 -10
-5 -25 -9 -33 -9 -8 0 -15 -4 -15 -10 0 -5 -11 -10 -25 -10 -14 0 -25 -4 -25
-10 0 -5 -7 -10 -15 -10 -8 0 -15 -4 -15 -10 0 -5 -7 -10 -14 -10 -8 0 -27
-11 -42 -25 -14 -13 -39 -30 -55 -37 -16 -7 -29 -16 -29 -20 0 -5 -4 -8 -10
-8 -20 0 -209 -191 -210 -212 0 -5 -6 -8 -13 -8 -8 0 -24 -20 -37 -45 -13 -25
-27 -45 -32 -45 -4 0 -8 -6 -8 -14 0 -8 -11 -24 -25 -37 -13 -13 -25 -32 -25
-41 0 -10 -4 -18 -10 -18 -5 0 -10 -9 -10 -20 0 -11 -4 -20 -10 -20 -5 0 -10
-11 -10 -24 0 -14 -4 -28 -10 -31 -5 -3 -10 -14 -10 -24 0 -10 -7 -24 -15 -31
-8 -7 -15 -26 -15 -42 0 -17 -4 -27 -10 -23 -6 4 -10 -8 -10 -27 0 -19 -6 -40
-13 -46 -9 -10 -12 -90 -12 -332 0 -242 3 -322 12 -332 7 -6 13 -25 13 -40 0
-15 4 -28 10 -28 5 0 12 -16 16 -35 3 -19 10 -35 15 -35 5 0 9 -9 9 -19 0 -11
5 -23 10 -26 6 -3 10 -15 10 -26 0 -10 5 -19 10 -19 6 0 10 -9 10 -20 0 -11 5
-20 10 -20 6 0 10 -7 10 -15 0 -17 24 -59 52 -89 10 -11 18 -26 18 -33 0 -7 5
-13 10 -13 6 0 10 -5 10 -10 0 -6 10 -21 23 -34 33 -34 67 -75 67 -82 0 -7 48
-54 55 -54 4 0 27 -20 52 -45 24 -25 49 -45 54 -45 5 0 9 -4 9 -10 0 -5 7 -10
15 -10 8 0 15 -4 15 -9 0 -5 15 -16 33 -24 17 -9 42 -25 54 -36 12 -12 29 -21
38 -21 8 0 15 -4 15 -10 0 -5 9 -10 20 -10 11 0 20 -4 20 -10 0 -5 7 -10 15
-10 15 0 25 -4 72 -28 13 -7 30 -12 38 -12 9 0 18 -7 21 -15 4 -10 20 -15 45
-15 21 0 39 -4 39 -10 0 -5 16 -10 35 -10 19 0 35 -4 35 -10 0 -6 33 -10 79
-10 44 0 83 -4 86 -10 4 -6 55 -10 120 -10 65 0 116 4 120 10 3 6 42 10 86 10
46 0 79 4 79 10 0 6 18 10 40 10 22 0 40 5 40 10 0 6 14 10 31 10 17 0 37 7
45 15 24 24 63 19 76 -10 6 -14 15 -25 20 -25 4 0 8 -8 8 -18 0 -10 9 -24 20
-32 11 -8 20 -22 20 -30 0 -9 8 -25 18 -36 10 -10 21 -27 25 -36 3 -10 11 -18
17 -18 5 0 10 -8 10 -18 0 -10 9 -28 20 -40 11 -12 20 -28 20 -37 0 -8 5 -15
10 -15 6 0 10 -6 10 -14 0 -7 10 -24 23 -38 12 -14 23 -31 25 -39 2 -8 7 -16
11 -19 4 -3 14 -20 22 -37 8 -18 17 -33 21 -33 5 0 8 -9 8 -20 0 -11 5 -20 10
-20 6 0 10 -5 10 -11 0 -6 6 -17 12 -24 32 -35 38 -45 38 -60 0 -8 4 -15 9
-15 5 0 11 -8 14 -17 7 -22 54 -103 72 -123 7 -8 16 -25 19 -36 4 -12 18 -34
31 -50 14 -16 25 -39 25 -51 0 -33 -81 -185 -120 -223 -3 -3 -12 -18 -20 -35
-8 -16 -19 -35 -25 -42 -5 -7 -16 -19 -23 -28 -7 -8 -10 -15 -7 -15 4 0 -1 -7
-9 -16 -9 -8 -16 -21 -16 -28 0 -6 -9 -18 -20 -26 -11 -8 -20 -22 -20 -32 0
-10 -4 -18 -10 -18 -5 0 -10 -7 -10 -15 0 -8 -4 -15 -10 -15 -5 0 -10 -7 -10
-15 0 -8 -11 -25 -25 -39 -14 -14 -25 -31 -25 -38 0 -8 -9 -20 -20 -28 -11 -8
-20 -20 -20 -28 0 -7 -11 -24 -25 -38 -14 -14 -25 -30 -25 -37 0 -7 -9 -19
-20 -27 -11 -8 -20 -20 -20 -28 0 -15 -45 -62 -60 -62 -5 0 -10 5 -10 10 0 6
-13 10 -30 10 -16 0 -30 5 -30 10 0 6 -13 10 -30 10 -16 0 -30 5 -30 10 0 6
-18 10 -40 10 -22 0 -40 5 -40 10 0 6 -15 10 -34 10 -19 0 -38 5 -41 10 -8 14
-492 14 -500 0 -3 -5 -19 -10 -35 -10 -16 0 -32 -4 -35 -10 -3 -6 -22 -10 -41
-10 -19 0 -34 -4 -34 -10 0 -5 -11 -10 -25 -10 -14 0 -25 -4 -25 -10 0 -5 -13
-10 -29 -10 -16 0 -31 -6 -35 -15 -3 -8 -15 -15 -26 -15 -11 0 -20 -4 -20 -10
0 -5 -9 -10 -20 -10 -11 0 -20 -4 -20 -10 0 -5 -9 -10 -20 -10 -11 0 -20 -4
-20 -10 0 -5 -9 -10 -20 -10 -11 0 -20 -4 -20 -10 0 -5 -6 -10 -14 -10 -8 0
-16 -4 -18 -8 -1 -5 -28 -26 -58 -48 -30 -21 -62 -46 -71 -56 -9 -10 -19 -18
-22 -18 -10 0 -97 -89 -97 -100 0 -5 -7 -10 -15 -10 -8 0 -15 -6 -15 -14 0 -8
-13 -24 -30 -37 -16 -13 -30 -32 -30 -41 0 -10 -4 -18 -10 -18 -5 0 -10 -7
-10 -15 0 -8 -4 -15 -10 -15 -5 0 -10 -6 -10 -14 0 -8 -11 -24 -25 -37 -13
-13 -25 -32 -25 -41 0 -10 -4 -18 -10 -18 -5 0 -10 -9 -10 -20 0 -11 -4 -20
-10 -20 -5 0 -10 -7 -10 -16 0 -14 -36 -101 -61 -146 -5 -10 -9 -29 -9 -42 0
-13 -6 -26 -12 -28 -19 -7 -19 -661 -1 -680 7 -6 13 -25 13 -40 0 -15 4 -28
10 -28 5 0 12 -16 16 -35 3 -19 10 -35 15 -35 5 0 9 -9 9 -20 0 -11 5 -20 10
-20 6 0 10 -9 10 -19 0 -11 5 -23 10 -26 6 -3 10 -15 10 -26 0 -10 5 -19 10
-19 6 0 10 -9 10 -20 0 -11 5 -20 10 -20 6 0 10 -6 10 -13 0 -8 9 -24 20 -37
11 -13 20 -27 20 -31 0 -4 11 -19 25 -33 14 -14 25 -28 25 -31 0 -9 19 -30
112 -123 97 -98 136 -132 149 -132 5 0 9 -4 9 -10 0 -5 7 -10 15 -10 8 0 15
-4 15 -10 0 -5 7 -10 15 -10 8 0 15 -3 15 -8 0 -4 15 -14 33 -21 17 -8 38 -21
45 -28 7 -7 20 -13 28 -13 8 0 14 -4 14 -10 0 -5 9 -10 20 -10 11 0 20 -4 20
-10 0 -5 11 -10 25 -10 14 0 25 -4 25 -10 0 -5 11 -10 24 -10 14 0 28 -4 31
-10 3 -5 17 -10 30 -10 13 0 26 -4 29 -9 3 -4 24 -11 46 -15 22 -3 40 -11 40
-16 0 -6 25 -10 55 -10 30 0 55 -4 55 -10 0 -6 65 -10 175 -10 110 0 175 4
175 10 0 6 27 10 61 10 40 0 65 5 75 15 9 8 28 15 44 15 16 0 32 5 35 10 3 6
17 10 30 10 13 0 27 5 30 10 3 6 17 10 31 10 13 0 24 5 24 10 0 6 11 10 25 10
14 0 25 5 25 10 0 6 12 10 27 10 14 0 23 3 20 7 -7 6 23 27 56 39 9 3 17 9 17
13 0 4 16 13 35 21 19 8 35 17 35 22 0 4 5 8 10 8 11 0 55 38 116 98 18 17 36
32 39 32 8 0 35 27 35 35 0 4 32 38 71 76 65 62 109 86 109 59 0 -5 8 -10 19
-10 10 0 24 -7 31 -15 7 -8 21 -15 31 -15 11 0 19 -4 19 -10 0 -5 9 -10 20
-10 11 0 20 -4 20 -10 0 -5 11 -10 25 -10 14 0 25 -4 25 -10 0 -5 6 -10 13
-10 20 0 117 -51 117 -61 0 -5 9 -9 20 -9 11 0 20 -4 20 -10 0 -5 11 -10 25
-10 14 0 25 -4 25 -10 0 -5 9 -10 20 -10 11 0 20 -4 20 -10 0 -5 11 -10 25
-10 14 0 25 -4 25 -10 0 -5 7 -10 15 -10 9 0 18 -7 21 -15 4 -8 17 -15 30 -15
13 0 24 -4 24 -10 0 -5 9 -10 20 -10 11 0 20 -4 20 -10 0 -5 6 -10 14 -10 18
0 150 -69 154 -81 2 -5 15 -9 28 -9 13 0 24 -4 24 -10 0 -5 9 -10 20 -10 11 0
20 -4 20 -10 0 -5 9 -10 20 -10 11 0 20 -4 20 -10 0 -5 6 -10 14 -10 18 0 76
-32 76 -42 0 -5 7 -8 15 -8 8 0 15 -4 15 -10 0 -5 9 -10 20 -10 11 0 20 -4 20
-10 0 -5 7 -10 15 -10 22 0 27 -36 20 -146 -11 -187 -3 -399 16 -418 5 -6 9
-23 9 -38 0 -15 4 -28 9 -28 5 0 12 -8 14 -17 24 -87 32 -113 39 -113 4 0 8
-8 8 -18 0 -22 22 -72 33 -72 4 0 7 -7 7 -15 0 -15 27 -63 41 -75 3 -3 12 -20
20 -37 8 -18 17 -33 21 -33 5 0 8 -6 8 -12 0 -7 20 -33 45 -58 24 -25 44 -49
45 -54 0 -10 126 -136 135 -136 5 0 23 -14 78 -62 18 -15 38 -28 45 -28 6 0
12 -4 12 -10 0 -5 6 -10 14 -10 8 0 16 -4 18 -8 2 -4 29 -20 60 -36 32 -15 60
-31 63 -37 4 -5 15 -9 26 -9 10 0 19 -4 19 -10 0 -5 11 -10 24 -10 13 0 26 -6
29 -12 6 -19 918 -19 925 0 2 6 15 12 28 12 13 0 24 4 24 9 0 5 8 11 18 15 9
3 31 14 47 25 17 11 38 20 48 20 9 1 17 6 17 11 0 6 7 10 15 10 8 0 15 5 15
10 0 6 9 10 21 10 11 0 17 4 14 10 -3 5 0 10 8 10 8 0 17 7 21 15 3 8 12 15
21 15 8 0 15 5 15 10 0 6 6 10 13 10 7 0 19 9 27 20 8 11 18 20 23 20 10 0
167 154 167 164 0 3 14 20 30 38 17 17 30 35 30 40 0 5 11 21 25 36 14 15 25
32 25 39 0 7 5 13 10 13 6 0 10 9 10 20 0 11 5 20 10 20 6 0 10 7 10 15 0 8 9
29 20 47 11 18 20 41 20 51 0 10 7 20 15 23 8 4 15 14 15 24 0 11 5 22 10 25
6 3 10 24 10 46 0 21 5 39 10 39 6 0 10 13 10 28 0 15 4 32 9 38 31 31 30 526
0 558 -5 6 -9 22 -9 37 0 15 -4 31 -10 34 -5 3 -10 24 -10 46 0 21 -4 39 -10
39 -5 0 -10 9 -10 21 0 11 -7 27 -15 35 -8 9 -15 24 -15 34 0 10 -4 22 -10 25
-5 3 -10 15 -10 26 0 10 -4 19 -10 19 -5 0 -10 9 -10 20 0 11 -4 20 -10 20 -5
0 -10 9 -10 20 0 11 -4 20 -10 20 -5 0 -10 12 -10 28 0 22 -2 24 -11 12 -9
-12 -10 -12 -5 3 3 10 6 21 6 23 0 2 6 4 13 4 6 0 28 22 47 47 19 26 54 66 78
90 23 23 42 45 42 49 0 7 46 51 83 79 15 11 27 23 27 27 0 5 48 58 108 118 59
60 136 142 172 180 36 39 82 89 102 110 20 22 41 40 47 40 6 0 11 4 11 9 0 5
53 63 118 129 137 140 232 241 232 248 0 9 90 94 100 94 5 0 10 5 10 10 0 6
48 60 108 119 150 152 242 249 242 256 0 10 120 125 131 125 6 0 17 -6 24 -12
35 -32 45 -38 60 -38 8 0 15 -4 15 -10 0 -5 9 -10 20 -10 11 0 20 -4 20 -10 0
-5 9 -10 20 -10 11 0 20 -4 20 -10 0 -5 5 -10 12 -10 18 0 88 -33 88 -42 0 -4
14 -8 31 -8 17 0 28 -4 24 -10 -4 -6 8 -10 29 -10 20 0 36 -4 36 -10 0 -5 19
-10 43 -10 24 0 47 -4 53 -9 16 -16 103 -23 264 -23 161 0 248 7 265 23 5 5
28 9 52 9 24 0 43 5 43 10 0 6 16 10 35 10 19 0 35 5 35 10 0 6 14 10 32 10
17 0 28 3 24 7 -7 8 59 43 81 43 7 0 13 5 13 10 0 6 9 10 20 10 11 0 20 5 20
10 0 6 9 10 20 10 11 0 20 5 20 10 0 6 9 10 21 10 11 0 18 4 14 9 -3 5 4 12
15 16 11 3 20 11 20 16 0 5 7 9 15 9 8 0 15 5 15 10 0 6 6 10 13 10 7 0 19 9
27 20 8 11 20 20 27 20 7 0 13 5 13 10 0 6 4 10 9 10 11 0 141 127 141 138 0
5 16 26 35 48 52 59 55 62 55 74 0 5 5 10 10 10 6 0 10 8 10 18 0 10 9 24 20
32 11 8 20 25 20 37 0 13 5 23 10 23 6 0 10 9 10 20 0 11 3 20 8 20 7 0 15 14
53 94 19 41 21 927 2 934 -7 2 -13 14 -13 27 0 12 -7 28 -15 35 -8 7 -15 21
-15 31 0 11 -4 19 -10 19 -5 0 -10 9 -10 20 0 11 -4 20 -9 20 -5 0 -11 8 -15
18 -9 27 -39 75 -62 100 -11 12 -27 34 -35 49 -8 15 -33 47 -57 72 -23 24 -42
51 -42 58 0 7 -4 13 -10 13 -10 0 -45 29 -111 93 -21 20 -43 37 -49 37 -5 0
-10 4 -10 9 0 5 -8 11 -17 14 -10 3 -31 14 -48 24 -29 18 -38 24 -69 51 -8 6
-24 12 -36 12 -11 0 -20 5 -20 10 0 6 -11 10 -25 10 -14 0 -25 5 -25 10 0 6
-9 10 -19 10 -11 0 -23 5 -26 10 -3 6 -17 10 -30 10 -13 0 -26 4 -29 9 -3 5
-22 12 -41 15 -20 4 -33 11 -30 17 4 5 -15 9 -44 9 -28 0 -51 5 -51 10 0 6
-26 10 -59 10 -33 0 -63 5 -66 10 -4 6 -58 10 -131 10 -76 0 -124 -4 -124 -10
0 -6 -27 -10 -60 -10 -33 0 -60 -4 -60 -10 0 -5 -21 -10 -46 -10 -27 0 -51 -6
-60 -15 -9 -8 -24 -15 -34 -15 -10 0 -22 -4 -25 -10 -3 -5 -17 -10 -30 -10
-13 0 -27 -4 -30 -10 -3 -5 -15 -10 -26 -10 -10 0 -19 -4 -19 -10 0 -5 -11
-10 -25 -10 -14 0 -25 -4 -25 -10 0 -5 -12 -10 -27 -10 -14 0 -23 -3 -20 -7 7
-7 -14 -20 -75 -50 -21 -10 -38 -21 -38 -25 0 -5 -13 -8 -29 -8 -16 0 -32 -6
-34 -12 -4 -10 -6 -10 -6 0 -1 6 -6 12 -11 12 -11 0 -1590 1575 -1590 1585 0
8 -27 35 -35 35 -14 0 -57 52 -48 59 5 3 15 21 22 38 7 18 24 45 37 60 13 16
24 36 24 46 0 9 5 17 10 17 6 0 10 9 10 20 0 11 5 20 10 20 6 0 10 9 10 19 0
11 5 23 10 26 6 3 10 15 10 25 0 10 7 25 15 34 8 8 15 21 15 30 0 8 5 18 10
21 6 3 10 24 10 46 0 21 5 39 10 39 6 0 10 16 10 35 0 19 4 35 9 35 31 0 30
527 0 546 -5 3 -9 23 -9 45 0 21 -4 39 -10 39 -5 0 -10 13 -10 29 0 17 -4 33
-10 36 -5 3 -10 15 -10 25 0 10 -6 25 -13 32 -7 7 -19 32 -26 56 -8 23 -18 42
-23 42 -4 0 -8 9 -8 20 0 11 -4 20 -10 20 -5 0 -10 9 -10 20 0 10 -8 24 -17
29 -10 6 -14 11 -10 11 5 0 2 7 -5 15 -30 33 -38 45 -38 55 0 5 -4 10 -10 10
-5 0 -10 7 -10 15 0 9 -22 38 -50 65 -27 27 -50 54 -50 60 0 5 -4 10 -10 10
-5 0 -38 28 -73 63 -35 34 -77 69 -93 77 -16 8 -38 23 -48 33 -11 9 -25 17
-32 17 -6 0 -14 7 -18 15 -3 8 -12 15 -21 15 -8 0 -15 5 -15 10 0 6 -9 10 -20
10 -11 0 -20 5 -20 10 0 6 -9 10 -20 10 -11 0 -20 5 -20 10 0 6 -7 10 -15 10
-15 0 -24 3 -82 34 -17 9 -38 16 -47 16 -9 0 -16 5 -16 10 0 6 -18 10 -39 10
-22 0 -41 5 -43 12 -3 9 -71 13 -269 14 -145 1 -285 0 -311 -3z m482 -363 c0
-5 9 -10 21 -10 30 0 119 -31 119 -41 0 -5 9 -9 20 -9 11 0 20 -4 20 -10 0 -5
11 -10 24 -10 13 0 26 -3 28 -7 4 -10 57 -42 81 -50 9 -3 17 -12 17 -19 0 -8
7 -14 15 -14 8 0 15 -4 15 -10 0 -5 5 -10 11 -10 6 0 40 -30 75 -67 93 -98 99
-105 115 -141 7 -18 17 -32 21 -32 5 0 8 -9 8 -20 0 -11 5 -20 10 -20 6 0 10
-6 10 -14 0 -7 7 -19 15 -26 8 -7 15 -21 15 -31 0 -11 5 -19 10 -19 6 0 10 -9
10 -19 0 -11 5 -23 10 -26 6 -3 10 -21 10 -40 0 -19 5 -37 10 -40 6 -3 10 -24
10 -45 0 -21 5 -42 10 -45 6 -4 10 -63 10 -145 0 -82 -4 -141 -10 -145 -5 -3
-10 -24 -10 -45 0 -21 -4 -42 -10 -45 -5 -3 -10 -21 -10 -40 0 -19 -4 -37 -10
-40 -5 -3 -10 -15 -10 -26 0 -10 -4 -19 -10 -19 -5 0 -10 -9 -10 -20 0 -11 -7
-23 -15 -26 -8 -4 -15 -15 -15 -25 0 -10 -4 -19 -10 -19 -5 0 -10 -9 -10 -20
0 -11 -4 -20 -9 -20 -5 0 -16 -16 -26 -36 -16 -33 -175 -204 -190 -204 -4 0
-16 -11 -27 -25 -11 -14 -26 -25 -34 -25 -8 0 -14 -4 -14 -8 0 -5 -16 -14 -35
-22 -19 -8 -35 -17 -35 -22 0 -4 -11 -8 -25 -8 -14 0 -25 -4 -25 -10 0 -5 -11
-10 -24 -10 -13 0 -26 -7 -30 -15 -3 -9 -18 -15 -35 -15 -16 0 -33 -4 -36 -10
-3 -5 -21 -10 -40 -10 -19 0 -37 -4 -40 -10 -4 -6 -78 -10 -191 -10 -116 0
-184 4 -184 10 0 6 -15 10 -34 10 -19 0 -38 5 -41 10 -3 6 -17 10 -30 10 -13
0 -30 7 -39 15 -8 8 -24 15 -35 15 -12 0 -21 5 -21 10 0 6 -9 10 -20 10 -11 0
-20 5 -20 10 0 6 -9 10 -20 10 -11 0 -20 3 -20 8 0 4 -12 13 -27 19 -16 7 -40
24 -55 38 -15 14 -30 25 -33 25 -7 0 -95 88 -95 96 0 3 -18 23 -40 44 -22 21
-40 42 -40 47 0 4 -11 20 -25 35 -14 15 -25 34 -25 43 0 8 -4 15 -10 15 -5 0
-10 9 -10 20 0 11 -4 20 -10 20 -5 0 -10 11 -10 25 0 14 -4 25 -10 25 -5 0
-10 12 -10 26 0 14 -4 23 -10 19 -9 -6 -15 16 -11 39 1 4 -5 19 -14 32 -8 13
-15 38 -15 57 0 18 -5 38 -11 44 -13 13 -6 269 9 333 20 88 35 130 43 130 5 0
9 9 9 19 0 11 5 23 10 26 6 3 10 16 10 28 0 12 9 33 20 47 11 14 20 31 20 38
0 6 5 12 10 12 6 0 10 8 10 18 0 9 32 51 70 92 39 41 70 78 70 83 0 4 6 7 13
7 7 0 19 9 27 20 8 11 18 20 22 20 7 0 41 27 72 56 6 5 26 17 44 25 17 7 32
17 32 21 0 5 9 8 20 8 11 0 20 5 20 10 0 6 12 10 26 10 14 0 23 4 19 10 -4 6
7 13 25 16 17 4 33 11 36 15 3 5 18 9 34 9 16 0 32 5 35 10 4 6 90 10 226 10
139 0 219 -4 219 -10z m-3525 -1290 c3 -5 17 -10 30 -10 13 0 27 -4 30 -10 3
-5 17 -10 31 -10 14 0 27 -7 30 -15 4 -8 17 -15 30 -15 13 0 24 -4 24 -10 0
-5 11 -10 25 -10 14 0 25 -3 25 -8 0 -4 15 -13 33 -21 17 -8 42 -25 54 -38 12
-13 27 -23 33 -23 5 0 10 -4 10 -10 0 -5 5 -10 11 -10 14 0 157 -150 165 -172
3 -10 10 -18 15 -18 5 0 9 -7 9 -15 0 -8 5 -15 10 -15 6 0 10 -9 10 -20 0 -11
5 -20 10 -20 6 0 10 -9 10 -20 0 -11 5 -20 10 -20 6 0 10 -7 10 -15 0 -15 15
-47 36 -75 11 -14 15 -32 30 -115 3 -16 10 -39 15 -50 13 -28 6 -318 -10 -375
-7 -25 -15 -58 -18 -75 -3 -16 -11 -37 -17 -45 -12 -15 -24 -40 -48 -97 -7
-18 -16 -33 -20 -33 -5 0 -8 -9 -8 -20 0 -11 -4 -20 -8 -20 -5 0 -15 -12 -22
-27 -8 -16 -29 -44 -47 -63 -99 -107 -142 -150 -148 -150 -3 0 -18 -11 -33
-25 -15 -14 -39 -31 -54 -38 -16 -6 -28 -15 -28 -19 0 -5 -9 -8 -20 -8 -11 0
-20 -4 -20 -10 0 -5 -11 -10 -25 -10 -14 0 -25 -4 -25 -10 0 -5 -9 -10 -20
-10 -11 0 -23 -7 -26 -15 -4 -9 -19 -15 -39 -15 -19 0 -37 -4 -40 -10 -3 -5
-19 -10 -35 -10 -16 0 -32 -4 -35 -10 -4 -6 -77 -10 -186 -10 -113 0 -179 4
-179 10 0 6 -16 10 -35 10 -19 0 -35 5 -35 10 0 6 -16 10 -35 10 -22 0 -38 6
-41 15 -4 8 -17 15 -30 15 -13 0 -24 5 -24 10 0 6 -6 10 -14 10 -24 0 -130 59
-153 85 -12 14 -27 25 -33 25 -5 0 -10 5 -10 10 0 6 -5 10 -10 10 -11 0 -80
65 -80 75 0 3 -10 16 -22 29 -41 41 -68 76 -68 86 0 6 -4 10 -10 10 -5 0 -10
9 -10 20 0 11 -4 20 -8 20 -5 0 -14 16 -22 35 -8 19 -17 35 -22 35 -4 0 -8 9
-8 20 0 11 -4 20 -9 20 -10 0 -41 89 -41 119 0 11 -4 23 -10 26 -14 8 -14 445
0 445 6 0 10 15 10 34 0 19 5 38 10 41 6 3 10 17 10 30 0 12 7 25 15 29 8 3
15 15 15 26 0 11 5 20 10 20 6 0 10 9 10 20 0 11 5 20 10 20 6 0 10 9 10 20 0
11 5 20 10 20 6 0 10 8 10 18 0 34 197 242 230 242 6 0 10 6 10 13 0 6 15 18
33 26 17 8 34 17 37 20 10 12 50 31 65 31 8 0 15 5 15 10 0 6 9 10 19 10 10 0
21 7 25 15 3 8 13 15 22 15 20 0 81 18 104 31 22 12 457 11 465 -1z m2166
-272 c7 -13 20 -30 31 -39 10 -9 18 -24 18 -33 0 -9 4 -16 8 -16 4 0 16 -14
27 -32 10 -18 33 -46 49 -63 17 -17 40 -44 51 -60 11 -15 37 -45 58 -65 24
-25 35 -43 31 -54 -3 -9 -10 -16 -14 -16 -4 0 -13 -13 -20 -30 -7 -16 -16 -30
-21 -30 -5 0 -11 -11 -15 -25 -3 -14 -10 -25 -15 -25 -5 0 -9 -8 -9 -18 0 -10
-9 -24 -20 -32 -11 -8 -20 -22 -20 -31 0 -9 -11 -27 -25 -40 -13 -13 -25 -28
-25 -32 0 -4 -9 -17 -20 -29 -11 -12 -20 -30 -20 -40 0 -10 -4 -18 -9 -18 -5
0 -14 -13 -21 -30 -7 -16 -15 -30 -19 -30 -4 0 -15 -16 -25 -35 -11 -19 -23
-35 -28 -35 -4 0 -8 -7 -8 -15 0 -9 -9 -25 -20 -37 -11 -12 -20 -28 -20 -36 0
-8 -11 -23 -25 -34 -14 -11 -25 -26 -25 -34 0 -8 -3 -14 -8 -14 -4 0 -14 -15
-21 -32 -8 -18 -20 -38 -25 -45 -30 -34 -36 -43 -31 -43 5 0 -4 -12 -32 -45
-7 -7 -13 -18 -13 -24 0 -6 -4 -11 -10 -11 -5 0 -10 -9 -10 -20 0 -11 -4 -20
-10 -20 -5 0 -10 -6 -10 -14 0 -8 -3 -16 -7 -18 -12 -5 -63 -83 -63 -95 0 -6
-7 -13 -15 -17 -18 -6 -75 12 -75 25 0 5 -9 9 -19 9 -11 0 -23 5 -26 10 -3 6
-15 10 -26 10 -10 0 -19 5 -19 10 0 6 -7 10 -15 10 -8 0 -30 9 -50 20 -20 11
-42 20 -51 20 -8 0 -17 7 -20 15 -4 8 -15 15 -25 15 -10 0 -19 5 -19 10 0 6
-9 10 -20 10 -11 0 -20 5 -20 10 0 6 -6 10 -13 10 -17 0 -115 49 -123 61 -3 5
-14 9 -25 9 -10 0 -19 5 -19 10 0 6 -9 10 -20 10 -11 0 -20 5 -20 10 0 6 -9
10 -20 10 -11 0 -20 5 -20 10 0 6 -9 10 -20 10 -11 0 -20 5 -20 10 0 6 -6 10
-13 10 -7 0 -20 9 -30 20 -18 22 -24 55 -7 45 6 -4 10 13 10 44 0 28 5 51 10
51 6 0 10 19 10 43 0 24 5 48 11 54 11 11 7 322 -6 401 -6 35 -4 42 9 42 9 0
16 4 16 10 0 5 11 12 25 16 14 3 25 10 25 15 0 5 11 9 25 9 14 0 25 5 25 10 0
6 13 10 29 10 17 0 33 5 36 10 3 6 17 10 31 10 13 0 24 5 24 10 0 6 16 10 35
10 19 0 35 5 35 10 0 6 11 10 25 10 14 0 25 4 25 10 0 5 12 12 28 16 27 6 62
19 94 35 10 5 29 9 43 9 14 0 25 5 25 10 0 6 11 10 25 10 14 0 25 5 25 10 0 6
16 10 35 10 19 0 35 4 35 8 0 10 71 42 93 42 9 0 19 5 22 10 3 6 17 10 31 10
13 0 24 5 24 10 0 6 14 10 30 10 17 0 30 5 30 10 0 6 14 10 30 10 17 0 30 5
30 10 0 6 8 10 19 10 10 0 32 7 47 15 40 21 61 19 75 -7z m2211 -686 c7 -7 37
-37 67 -67 30 -30 58 -55 63 -55 4 0 8 -5 8 -11 0 -12 90 -99 103 -99 4 0 7
-5 7 -11 0 -12 110 -119 122 -119 5 0 8 -5 8 -11 0 -12 90 -99 103 -99 4 0 7
-5 7 -11 0 -12 89 -99 102 -99 4 0 8 -5 8 -11 0 -12 110 -119 122 -119 5 0 8
-5 8 -11 0 -12 90 -99 103 -99 4 0 7 -6 7 -12 0 -7 21 -31 47 -53 26 -22 54
-49 62 -59 29 -34 115 -116 123 -116 4 0 8 -5 8 -11 0 -12 90 -99 103 -99 4 0
7 -6 7 -12 1 -7 21 -31 46 -53 25 -22 53 -48 63 -59 40 -45 68 -73 99 -99 27
-21 30 -28 18 -33 -9 -3 -16 -12 -16 -20 0 -8 -4 -14 -10 -14 -5 0 -10 -9 -10
-20 0 -11 -4 -20 -10 -20 -5 0 -10 -9 -10 -20 0 -11 -4 -20 -10 -20 -5 0 -10
-7 -10 -15 0 -8 -4 -15 -10 -15 -5 0 -10 -9 -10 -20 0 -11 -4 -20 -10 -20 -5
0 -12 -11 -16 -25 -3 -14 -10 -25 -15 -25 -5 0 -9 -9 -9 -20 0 -11 -4 -28 -9
-38 -8 -16 -15 -31 -43 -99 -10 -26 -19 -33 -40 -33 -16 0 -28 4 -28 9 0 5
-28 12 -62 15 -220 20 -376 41 -411 55 -16 6 -57 11 -93 11 -36 0 -64 4 -64
10 0 6 -33 10 -80 10 -47 0 -80 4 -80 10 0 6 -21 10 -46 10 -71 0 -73 5 -90
208 -3 39 -10 72 -15 72 -5 0 -9 16 -9 35 0 19 -4 35 -10 35 -5 0 -10 18 -10
40 0 22 -4 40 -10 40 -5 0 -10 9 -10 20 0 11 -7 23 -15 26 -8 4 -15 17 -15 30
0 13 -10 40 -21 61 -12 21 -33 58 -47 83 -14 25 -31 50 -38 57 -7 7 -16 22
-19 33 -3 11 -11 20 -16 20 -5 0 -9 5 -9 10 0 6 -10 22 -22 35 -57 62 -68 75
-68 80 0 8 -47 55 -55 55 -3 0 -26 20 -51 45 -24 25 -48 45 -54 45 -5 0 -10 5
-10 10 0 6 -7 10 -15 10 -8 0 -15 5 -15 10 0 6 -7 10 -15 10 -8 0 -15 5 -15
10 0 6 -6 10 -14 10 -7 0 -25 11 -40 25 -15 14 -34 25 -42 25 -7 0 -14 5 -14
10 0 6 -9 10 -20 10 -11 0 -20 5 -20 10 0 6 -9 10 -19 10 -11 0 -23 5 -26 10
-3 6 -17 10 -31 10 -13 0 -24 5 -24 10 0 6 -9 10 -19 10 -11 0 -26 7 -35 15
-8 8 -28 15 -45 15 -17 0 -31 5 -31 10 0 6 -18 10 -40 10 -22 0 -40 5 -40 10
0 6 -36 10 -89 10 -50 0 -93 5 -96 10 -3 6 -39 10 -80 10 -41 0 -77 -4 -80
-10 -3 -6 -48 -10 -101 -10 -56 0 -94 -4 -94 -10 0 -5 -16 -10 -35 -10 -19 0
-35 -4 -35 -10 0 -5 -15 -10 -34 -10 -18 0 -39 -7 -46 -15 -7 -8 -21 -15 -31
-15 -10 0 -21 -4 -24 -10 -3 -5 -17 -10 -31 -10 -13 0 -24 -4 -24 -10 0 -5
-11 -10 -25 -10 -14 0 -25 -4 -25 -10 0 -5 -9 -10 -20 -10 -11 0 -20 -4 -20
-10 0 -5 -6 -10 -14 -10 -8 0 -16 -3 -18 -7 -4 -10 -85 -63 -96 -63 -4 0 -14
-9 -22 -20 -8 -11 -18 -20 -22 -20 -16 0 -144 -123 -246 -236 -33 -36 -56 -54
-59 -46 -2 6 -11 12 -19 12 -8 0 -17 7 -20 15 -4 8 -15 15 -25 15 -10 0 -19 4
-19 9 0 5 -10 11 -21 14 -20 5 -20 7 -5 22 9 9 19 27 22 41 3 13 10 24 15 24
5 0 9 6 9 13 0 6 11 25 25 41 14 16 25 33 25 38 0 5 9 18 20 30 11 12 20 28
20 35 0 7 4 13 9 13 5 0 15 15 22 33 7 17 17 37 21 42 5 6 17 21 28 34 12 14
23 35 26 48 4 13 9 23 13 23 4 0 14 12 22 28 14 27 24 42 47 67 6 7 12 18 12
24 0 6 5 11 10 11 6 0 10 8 10 18 0 10 9 24 20 32 11 8 20 21 20 30 0 14 11
30 67 98 13 15 23 34 23 42 0 9 9 22 20 30 11 8 20 20 20 28 0 7 11 25 25 40
14 15 25 32 25 39 0 7 4 13 9 13 5 0 14 14 21 30 7 17 16 30 21 30 5 0 9 5 9
11 0 17 27 39 49 39 12 0 21 -4 21 -9 0 -5 11 -12 25 -15 14 -4 25 -11 25 -16
0 -6 16 -10 35 -10 19 0 35 -4 35 -10 0 -5 18 -10 40 -10 22 0 40 -4 40 -9 0
-20 455 -40 474 -21 5 5 38 10 73 10 35 0 63 4 63 10 0 6 16 10 35 10 19 0 35
5 35 10 0 6 13 10 29 10 16 0 34 7 41 15 7 8 21 15 31 15 11 0 19 5 19 10 0 6
11 10 25 10 14 0 25 5 25 10 0 6 9 10 20 10 11 0 20 5 20 10 0 6 11 10 25 10
14 0 25 5 25 10 0 6 7 10 15 10 8 0 15 4 15 9 0 9 20 21 87 55 13 6 23 15 23
19 0 7 159 -146 292 -281z m-3472 -734 c0 -5 11 -8 25 -8 14 0 25 -4 25 -10 0
-5 9 -10 20 -10 11 0 20 -4 20 -10 0 -5 6 -10 13 -10 20 0 117 -51 117 -61 0
-5 11 -9 25 -9 14 0 25 -4 25 -10 0 -5 9 -10 20 -10 11 0 20 -4 20 -10 0 -5 9
-10 20 -10 11 0 20 -4 20 -10 0 -5 9 -10 20 -10 11 0 20 -4 20 -10 0 -5 8 -10
19 -10 10 0 24 -7 31 -15 7 -8 19 -15 26 -15 8 0 14 -4 14 -10 0 -5 9 -10 20
-10 11 0 20 -4 20 -8 0 -5 16 -14 35 -22 19 -8 35 -17 35 -22 0 -4 6 -8 14 -8
8 0 17 -4 20 -9 6 -10 -16 -61 -26 -61 -5 0 -8 -7 -8 -16 0 -8 -6 -22 -12 -29
-31 -34 -36 -43 -31 -49 3 -3 -2 -8 -11 -12 -9 -3 -16 -14 -16 -23 0 -9 -9
-23 -20 -31 -11 -8 -20 -21 -20 -30 0 -13 -12 -30 -60 -87 -5 -7 -10 -17 -10
-23 0 -5 -4 -10 -10 -10 -5 0 -10 -8 -10 -18 0 -10 -9 -24 -20 -32 -11 -8 -20
-20 -20 -28 0 -12 -7 -23 -37 -57 -7 -7 -13 -18 -13 -24 0 -6 -4 -11 -10 -11
-5 0 -10 -9 -10 -20 0 -11 -4 -20 -10 -20 -5 0 -10 -7 -10 -15 0 -8 -4 -15 -8
-15 -5 0 -15 -12 -23 -27 -8 -15 -26 -40 -40 -55 -25 -27 -26 -27 -42 -7 -9
10 -17 26 -17 34 0 8 -7 15 -16 15 -10 0 -14 5 -10 15 3 9 -1 18 -9 21 -8 4
-15 12 -15 20 0 8 -4 14 -10 14 -5 0 -10 9 -10 20 0 11 -4 20 -10 20 -5 0 -10
9 -10 20 0 11 -4 20 -10 20 -5 0 -10 7 -10 15 0 8 -4 15 -8 15 -5 0 -17 18
-28 40 -10 22 -22 40 -26 40 -5 0 -8 8 -8 18 0 10 -9 28 -20 40 -11 12 -20 28
-20 37 0 8 -4 15 -10 15 -5 0 -10 4 -10 10 0 9 -39 72 -60 97 -5 7 -10 19 -10
28 0 8 -4 15 -10 15 -5 0 -10 7 -10 15 0 8 -4 15 -10 15 -5 0 -10 9 -10 20 0
11 -4 20 -10 20 -5 0 -10 7 -10 15 0 9 -6 18 -14 21 -8 3 -17 16 -20 29 -3 13
-13 31 -22 39 -9 10 -12 21 -7 30 9 15 140 161 186 206 15 15 27 30 27 33 0 4
7 15 16 26 15 18 18 18 45 2 16 -9 29 -19 29 -23z m2560 -58 c0 -5 15 -10 34
-10 19 0 38 -4 41 -10 3 -5 19 -10 35 -10 16 0 35 -7 44 -15 8 -8 24 -15 35
-15 12 0 21 -4 21 -10 0 -5 11 -10 25 -10 14 0 25 -4 25 -10 0 -5 9 -10 20
-10 11 0 20 -3 20 -8 0 -4 14 -14 32 -21 18 -8 42 -25 54 -38 12 -13 26 -23
33 -23 6 0 11 -4 11 -10 0 -5 5 -10 10 -10 12 0 80 -65 80 -77 0 -4 16 -21 35
-38 19 -16 35 -35 35 -42 0 -7 5 -13 10 -13 6 0 10 -7 10 -15 0 -8 5 -15 10
-15 6 0 10 -6 10 -13 0 -7 9 -23 20 -35 11 -12 20 -28 20 -36 0 -8 3 -16 8
-18 10 -4 42 -75 42 -93 0 -8 5 -15 10 -15 6 0 10 -16 10 -35 0 -19 5 -35 10
-35 6 0 10 -18 10 -40 0 -22 5 -40 10 -40 6 0 10 -56 10 -149 0 -89 -4 -152
-10 -156 -5 -3 -10 -26 -10 -50 0 -24 -4 -47 -10 -50 -5 -3 -10 -21 -10 -40 0
-19 -4 -37 -10 -40 -5 -3 -10 -15 -10 -26 0 -10 -4 -19 -10 -19 -5 0 -10 -8
-10 -19 0 -10 -7 -24 -15 -31 -8 -7 -15 -19 -15 -26 0 -8 -4 -14 -8 -14 -5 0
-14 -16 -22 -35 -8 -19 -16 -35 -20 -35 -3 0 -14 -14 -24 -31 -18 -31 -160
-179 -171 -179 -3 0 -16 -11 -29 -25 -13 -14 -28 -25 -35 -25 -6 0 -11 -4 -11
-10 0 -5 -9 -10 -20 -10 -11 0 -20 -4 -20 -10 0 -5 -11 -10 -25 -10 -14 0 -25
-4 -25 -10 0 -5 -11 -10 -24 -10 -13 0 -26 -5 -28 -11 -4 -12 -73 -39 -100
-39 -10 0 -18 -4 -18 -9 0 -15 -87 -23 -250 -23 -163 0 -250 8 -250 23 0 5 -8
9 -17 9 -28 0 -97 27 -101 39 -2 6 -15 11 -28 11 -13 0 -24 5 -24 10 0 6 -9
10 -20 10 -11 0 -20 5 -20 10 0 6 -9 10 -20 10 -11 0 -20 5 -20 10 0 6 -6 10
-13 10 -7 0 -30 16 -50 35 -20 19 -39 35 -42 35 -9 0 -95 89 -95 98 0 4 -9 14
-20 22 -11 8 -20 18 -20 23 0 4 -11 20 -25 35 -14 15 -25 30 -25 34 0 4 -13
30 -30 58 -17 28 -30 60 -30 70 0 11 -4 20 -10 20 -5 0 -10 6 -10 14 0 7 -7
27 -15 42 -8 16 -15 37 -15 47 0 9 -4 17 -9 17 -23 0 -33 320 -13 415 17 84
34 135 43 135 5 0 9 9 9 19 0 11 5 23 10 26 6 3 10 17 10 31 0 13 3 24 8 24 4
0 14 15 21 33 8 17 20 37 25 44 30 34 34 41 29 47 -3 3 2 8 11 12 9 3 16 12
16 20 0 13 151 174 164 174 4 0 19 11 34 25 15 14 39 31 55 38 15 6 27 15 27
19 0 5 9 8 20 8 11 0 20 5 20 10 0 6 11 10 25 10 14 0 25 5 25 10 0 6 9 10 21
10 11 0 27 7 35 15 9 8 28 15 44 15 16 0 32 5 35 10 3 6 22 10 41 10 19 0 34
5 34 10 0 6 60 10 160 10 100 0 160 -4 160 -10z m-1550 -440 c0 -5 9 -10 20
-10 11 0 20 -4 20 -10 0 -5 7 -10 15 -10 18 0 51 -18 76 -42 15 -14 16 -19 3
-43 -8 -15 -14 -47 -14 -71 0 -24 -4 -44 -9 -44 -5 0 -12 -39 -15 -87 -17
-245 -17 -266 -7 -276 6 -6 11 -46 11 -88 0 -43 5 -81 10 -84 6 -3 10 -20 10
-36 0 -17 7 -37 15 -45 8 -9 15 -31 15 -50 0 -19 5 -34 10 -34 6 0 10 -9 10
-20 0 -11 5 -20 10 -20 6 0 10 -13 10 -29 0 -17 5 -33 10 -36 6 -3 10 -15 10
-26 0 -10 5 -19 10 -19 6 0 10 -4 10 -10 0 -9 39 -72 60 -97 5 -7 10 -17 10
-22 0 -11 13 -29 60 -81 14 -15 34 -41 45 -56 11 -15 28 -35 39 -43 10 -9 41
-37 68 -63 27 -27 53 -48 58 -48 6 0 10 -4 10 -10 0 -5 7 -10 15 -10 8 0 15
-3 15 -7 0 -5 20 -21 45 -36 25 -16 45 -33 45 -38 0 -5 9 -9 20 -9 11 0 20 -4
20 -10 0 -5 7 -10 15 -10 8 0 15 -4 15 -10 0 -5 9 -10 20 -10 11 0 20 -4 20
-10 0 -5 9 -10 19 -10 11 0 23 -4 26 -10 3 -5 14 -10 24 -10 10 0 24 -7 31
-15 7 -8 26 -15 42 -15 17 0 27 -4 23 -10 -4 -6 10 -10 34 -10 23 0 41 -4 41
-10 0 -5 16 -10 35 -10 19 0 35 -4 35 -10 0 -5 18 -10 40 -10 l40 0 0 -720 0
-720 -39 0 c-25 0 -41 -5 -45 -15 -3 -9 -18 -15 -40 -15 -19 0 -38 -4 -41 -10
-3 -6 -22 -10 -41 -10 -19 0 -34 -4 -34 -10 0 -5 -11 -10 -25 -10 -14 0 -25
-4 -25 -10 0 -5 -23 -10 -50 -10 -41 0 -56 5 -75 25 -14 13 -25 31 -25 40 0 9
-6 18 -14 21 -9 3 -12 12 -9 21 4 10 2 14 -5 9 -6 -3 -13 3 -17 14 -3 11 -11
20 -16 20 -5 0 -9 9 -9 20 0 11 -4 20 -8 20 -4 0 -14 16 -21 35 -7 19 -17 35
-22 35 -5 0 -9 6 -9 14 0 7 -7 19 -15 26 -8 7 -15 21 -15 31 0 11 -4 19 -10
19 -5 0 -10 6 -10 13 0 7 -9 23 -20 35 -11 12 -20 27 -20 35 0 7 -8 22 -18 33
-28 30 -52 72 -52 89 0 8 -4 15 -9 15 -5 0 -14 14 -21 30 -7 17 -16 30 -21 30
-5 0 -9 9 -9 20 0 11 -7 23 -15 26 -8 4 -12 10 -9 15 3 5 1 9 -3 9 -5 0 -23
29 -42 65 -18 36 -38 71 -44 78 -15 16 -32 44 -53 85 -9 17 -20 32 -25 32 -5
0 -9 9 -9 20 0 11 -4 20 -10 20 -5 0 -10 7 -10 15 0 8 -3 15 -7 15 -5 0 -17
18 -27 40 -11 22 -23 40 -28 40 -4 0 -8 8 -8 18 0 10 -9 28 -20 40 -11 12 -20
28 -20 37 0 8 -4 15 -10 15 -5 0 -10 9 -10 20 0 11 -6 23 -14 26 -9 3 -12 12
-9 21 4 10 2 14 -5 9 -6 -3 -13 3 -17 14 -3 11 -11 20 -16 20 -5 0 -9 6 -9 14
0 19 -42 96 -52 96 -4 0 -8 4 -8 10 0 9 -39 72 -60 97 -5 7 -10 19 -10 28 0 8
-4 15 -10 15 -5 0 -10 7 -10 16 0 14 -12 32 -60 91 -6 7 -10 20 -10 30 0 10
-9 25 -20 33 -11 8 -20 22 -20 32 0 10 -4 18 -10 18 -5 0 -10 9 -10 20 0 11
-6 23 -14 26 -8 3 -20 19 -26 35 -7 16 -16 29 -21 29 -5 0 -9 10 -9 23 0 12
-9 29 -20 37 -11 8 -20 22 -20 32 0 10 -4 18 -10 18 -5 0 -10 4 -10 10 0 9
-39 72 -60 97 -5 7 -10 19 -10 28 0 8 -4 15 -10 15 -5 0 -10 7 -10 15 0 19
-18 50 -47 83 -13 14 -23 33 -23 43 0 11 -4 19 -10 19 -5 0 -10 9 -10 20 0 11
-4 20 -10 20 -17 0 -10 54 10 80 11 14 20 29 20 33 0 7 9 20 38 52 6 7 12 18
12 23 0 6 3 12 8 14 9 4 72 106 72 118 0 4 7 10 15 14 8 3 15 12 15 21 0 8 5
15 10 15 6 0 10 7 10 15 0 8 5 15 10 15 6 0 10 6 10 13 0 7 9 23 20 35 11 12
20 28 20 36 0 8 11 23 25 34 14 11 25 27 25 36 0 9 4 16 9 16 5 0 14 15 22 33
7 17 22 40 33 50 12 11 20 25 18 32 -1 7 4 15 13 19 8 3 15 12 15 21 0 8 5 15
10 15 6 0 10 7 10 15 0 8 5 15 10 15 6 0 10 8 10 18 0 10 9 24 20 32 11 8 20
22 20 30 0 9 11 27 25 40 14 13 25 29 25 37 0 7 11 13 25 13 14 0 25 -4 25
-10z m5045 -40 c3 -5 24 -10 46 -10 22 0 56 -7 76 -15 19 -8 44 -15 54 -15 11
0 19 -4 19 -10 0 -5 14 -10 30 -10 17 0 30 -4 30 -10 0 -5 9 -10 19 -10 11 0
23 -4 26 -10 3 -5 15 -10 26 -10 10 0 19 -4 19 -10 0 -5 6 -10 14 -10 7 0 25
-11 40 -25 15 -14 29 -25 32 -25 3 0 11 -6 19 -12 30 -29 56 -48 65 -48 6 0
10 -4 10 -8 0 -4 16 -26 36 -48 19 -21 48 -54 65 -72 16 -18 29 -37 29 -42 0
-6 5 -10 10 -10 6 0 10 -9 10 -20 0 -11 5 -20 10 -20 6 0 10 -7 10 -15 0 -9 6
-18 14 -21 8 -3 20 -25 27 -50 7 -24 17 -44 21 -44 4 0 8 -13 8 -29 0 -17 5
-33 10 -36 6 -3 10 -19 10 -36 0 -16 5 -29 10 -29 6 0 10 -39 10 -97 0 -67 3
-93 10 -83 7 11 9 -1 9 -40 -1 -42 -3 -49 -9 -30 -5 16 -8 -13 -9 -82 -1 -59
-5 -110 -11 -113 -5 -3 -10 -19 -10 -35 0 -16 -4 -32 -10 -35 -5 -3 -10 -15
-10 -26 0 -10 -4 -27 -9 -37 -5 -9 -15 -32 -21 -49 -7 -18 -23 -45 -36 -60
-13 -16 -24 -34 -24 -41 0 -7 -13 -26 -30 -44 -16 -17 -30 -35 -30 -40 0 -10
-116 -128 -125 -128 -3 0 -13 -8 -23 -17 -35 -33 -58 -50 -90 -64 -18 -8 -32
-17 -32 -21 0 -5 -9 -8 -20 -8 -11 0 -20 -4 -20 -10 0 -5 -6 -10 -14 -10 -7 0
-19 -7 -26 -15 -7 -8 -23 -15 -36 -15 -13 0 -24 -4 -24 -10 0 -5 -13 -10 -30
-10 -16 0 -30 -4 -30 -10 0 -5 -22 -10 -49 -10 -28 0 -53 -4 -56 -10 -4 -6
-68 -10 -161 -10 -96 0 -154 4 -154 10 0 6 -22 10 -50 10 -27 0 -50 5 -50 10
0 6 -11 10 -25 10 -14 0 -33 4 -43 9 -9 5 -34 17 -54 27 -21 10 -38 22 -38 26
0 5 -9 8 -20 8 -11 0 -20 5 -20 10 0 6 -9 10 -20 10 -11 0 -20 5 -20 10 0 6
-7 10 -15 10 -8 0 -15 5 -15 10 0 6 -7 10 -15 10 -8 0 -15 5 -15 10 0 6 -7 10
-15 10 -8 0 -15 5 -15 11 0 11 -25 39 -35 39 -8 0 -75 68 -75 76 0 3 -13 19
-30 34 -16 15 -30 32 -30 37 0 5 -11 20 -25 33 -13 12 -22 26 -20 31 3 4 -2
14 -10 22 -8 9 -15 23 -15 31 0 9 -4 16 -10 16 -5 0 -10 9 -10 19 0 11 -4 23
-10 26 -5 3 -10 15 -10 26 0 10 -4 19 -10 19 -5 0 -10 16 -10 35 0 19 -4 35
-10 35 -5 0 -10 16 -10 36 0 19 -7 42 -15 50 -12 12 -15 46 -15 170 0 128 3
156 15 160 10 4 15 20 15 50 0 24 5 44 10 44 6 0 10 16 10 35 0 19 5 35 10 35
6 0 10 11 10 25 0 14 5 25 10 25 6 0 10 9 10 20 0 11 5 20 10 20 6 0 10 7 10
15 0 17 24 59 52 89 10 11 18 26 18 33 0 7 5 13 10 13 6 0 10 5 10 10 0 15
156 170 170 170 7 0 21 9 31 21 19 22 70 55 102 65 9 4 17 10 17 15 0 5 11 9
25 9 14 0 25 5 25 10 0 6 13 10 29 10 16 0 31 3 33 8 5 12 101 42 135 42 17 0
35 5 38 10 4 6 57 10 125 10 68 0 121 -4 125 -10z m-2349 -809 c5 -5 36 -12
69 -15 131 -11 230 -26 233 -36 2 -6 39 -10 83 -10 46 0 79 -4 79 -10 0 -6 31
-10 74 -10 41 0 78 -4 81 -10 3 -5 42 -10 85 -10 43 0 82 -4 85 -10 3 -5 27
-10 53 -10 73 -1 82 -13 82 -109 0 -47 4 -81 10 -81 6 0 10 -16 10 -36 0 -19
5 -45 11 -56 10 -18 34 -103 56 -195 3 -13 9 -23 14 -23 5 0 9 -11 9 -25 0
-14 5 -25 10 -25 6 0 10 -6 10 -14 0 -7 7 -19 15 -26 8 -7 15 -21 15 -31 0
-11 5 -19 10 -19 6 0 10 -9 10 -20 0 -11 4 -20 8 -20 5 0 15 -12 23 -27 8 -15
26 -40 41 -57 27 -29 27 -31 10 -57 -9 -15 -43 -55 -74 -88 -32 -34 -58 -63
-58 -66 0 -3 -73 -79 -162 -169 -90 -90 -197 -201 -238 -246 -41 -45 -119
-127 -172 -181 -54 -55 -98 -103 -98 -107 0 -4 -12 -16 -27 -27 -36 -28 -83
-72 -83 -79 0 -6 -99 -112 -242 -258 -49 -49 -88 -92 -88 -95 0 -4 -45 -49
-96 -95 -11 -9 -53 -53 -94 -98 -126 -137 -200 -210 -213 -210 -7 0 -28 15
-47 33 -19 17 -48 39 -65 47 -16 8 -32 17 -35 20 -3 3 -31 18 -63 34 -31 15
-55 32 -52 37 4 5 -5 9 -19 9 -14 0 -26 5 -26 10 0 6 -11 10 -25 10 -14 0 -25
5 -25 10 0 6 -11 10 -24 10 -14 0 -28 5 -31 10 -3 6 -19 10 -35 10 -16 0 -32
5 -35 10 -3 6 -19 10 -35 10 -16 0 -35 7 -44 15 -8 8 -31 15 -50 15 l-36 0 0
720 0 720 34 0 c19 0 38 5 41 10 3 6 22 10 41 10 19 0 34 5 34 10 0 6 16 10
35 10 19 0 35 5 35 10 0 6 11 10 24 10 13 0 29 7 36 15 7 8 21 15 31 15 10 0
21 5 24 10 3 6 15 10 26 10 10 0 19 5 19 10 0 6 9 10 20 10 11 0 20 5 20 10 0
6 9 10 20 10 11 0 20 5 20 10 0 6 4 10 9 10 6 0 22 11 37 25 15 14 33 25 40
25 8 0 14 5 14 10 0 6 6 10 13 10 7 0 19 9 27 20 8 11 18 20 21 20 15 0 130
109 174 165 17 20 40 47 51 60 12 12 25 31 28 42 4 11 15 28 26 38 11 10 20
24 20 32 0 7 5 13 10 13 6 0 10 11 10 25 0 14 5 25 10 25 6 0 10 7 10 16 0 8
7 22 15 31 9 8 19 29 22 45 3 16 12 32 19 35 8 3 14 14 14 24 0 10 5 19 10 19
6 0 10 8 10 18 0 25 23 72 36 72 5 0 14 -4 20 -9z m-3536 -431 c0 -11 5 -20
10 -20 6 0 10 -7 10 -15 0 -9 7 -18 15 -21 8 -4 15 -12 15 -20 0 -8 5 -14 10
-14 6 0 10 -9 10 -20 0 -11 5 -20 10 -20 6 0 10 -9 10 -20 0 -11 4 -20 9 -20
5 0 16 -16 25 -35 9 -19 22 -35 28 -35 5 0 8 -6 5 -13 -3 -7 6 -23 19 -36 13
-13 24 -32 24 -42 0 -10 5 -19 10 -19 6 0 10 -9 10 -20 0 -11 5 -20 10 -20 6
0 10 -7 10 -14 0 -8 11 -27 25 -42 14 -15 25 -33 25 -40 0 -8 5 -14 10 -14 6
0 10 -9 10 -20 0 -11 5 -20 10 -20 6 0 10 -7 10 -15 0 -8 5 -15 10 -15 6 0 10
-9 10 -20 0 -11 5 -20 10 -20 6 0 10 -6 10 -14 0 -8 7 -16 15 -20 8 -3 15 -12
15 -21 0 -8 5 -15 10 -15 6 0 10 -9 10 -20 0 -11 5 -20 10 -20 6 0 10 -6 10
-13 0 -7 9 -23 20 -35 11 -12 20 -28 20 -37 0 -9 7 -18 16 -22 9 -3 13 -12 9
-21 -3 -9 -3 -13 1 -9 9 8 44 -47 44 -68 0 -8 5 -15 10 -15 6 0 10 -7 10 -16
0 -9 8 -24 19 -33 10 -9 21 -26 25 -38 4 -13 12 -23 17 -23 5 0 9 -7 9 -15 0
-9 9 -25 20 -37 11 -12 20 -30 20 -40 0 -10 5 -18 10 -18 6 0 10 -5 10 -12 0
-6 11 -26 25 -44 14 -18 25 -37 25 -43 0 -6 5 -11 10 -11 6 0 10 -9 10 -20 0
-11 4 -20 9 -20 5 0 11 -8 15 -17 7 -22 39 -77 56 -98 7 -8 10 -15 7 -15 -3 0
5 -12 18 -26 14 -15 25 -33 25 -41 0 -8 9 -23 20 -35 11 -12 20 -28 20 -35 0
-7 4 -13 9 -13 5 0 12 -11 15 -25 4 -14 11 -25 16 -25 6 0 10 -6 10 -12 0 -7
9 -24 20 -38 11 -14 20 -33 20 -42 0 -10 5 -18 10 -18 6 0 10 -9 10 -20 0 -11
5 -20 10 -20 6 0 10 -7 10 -16 0 -8 4 -13 9 -10 5 3 12 -5 15 -19 4 -14 11
-25 16 -25 6 0 10 -9 10 -20 0 -11 4 -20 9 -20 5 0 21 -24 35 -54 15 -30 30
-56 34 -58 10 -4 52 -76 52 -89 0 -5 9 -19 20 -31 11 -12 20 -28 20 -35 0 -7
4 -13 9 -13 5 0 12 -11 15 -25 4 -14 11 -25 16 -25 6 0 10 -7 10 -15 0 -15 -6
-25 -37 -60 -7 -7 -13 -16 -13 -20 0 -3 -19 -25 -42 -50 -55 -56 -68 -72 -68
-82 0 -5 -9 -15 -20 -23 -11 -8 -20 -21 -20 -30 0 -8 -11 -28 -25 -44 -14 -16
-25 -33 -25 -38 0 -4 -13 -8 -30 -8 -16 0 -30 3 -30 8 0 4 -15 13 -32 20 -18
7 -40 18 -48 23 -8 5 -23 12 -32 15 -10 4 -18 10 -18 15 0 5 -11 9 -25 9 -14
0 -25 5 -25 10 0 6 -9 10 -20 10 -11 0 -20 5 -20 10 0 6 -9 10 -20 10 -11 0
-20 5 -20 10 0 6 -6 10 -14 10 -18 0 -76 32 -76 43 0 4 -9 7 -20 7 -11 0 -20
5 -20 10 0 6 -9 10 -19 10 -11 0 -23 5 -26 10 -3 6 -15 10 -26 10 -10 0 -19 4
-19 8 0 4 -20 16 -45 26 -25 11 -45 23 -45 28 0 4 -9 8 -20 8 -11 0 -20 5 -20
10 0 6 -9 10 -20 10 -11 0 -20 5 -20 10 0 6 -9 10 -20 10 -11 0 -20 5 -20 10
0 6 -7 10 -15 10 -17 0 -109 49 -113 62 -2 4 -12 8 -23 8 -10 0 -19 5 -19 10
0 6 -9 10 -19 10 -11 0 -23 5 -26 10 -3 6 -15 10 -26 10 -10 0 -19 3 -19 8 0
8 -49 32 -67 32 -7 0 -13 7 -13 15 0 8 -7 15 -16 15 -8 0 -22 6 -30 14 -16 17
-19 46 -4 46 6 0 10 16 10 35 0 19 4 35 9 35 15 0 23 104 23 295 0 191 -8 295
-23 295 -5 0 -9 18 -9 40 0 22 -4 40 -10 40 -5 0 -10 8 -10 19 0 10 -11 44
-25 75 -14 31 -25 63 -25 71 0 8 -4 15 -10 15 -5 0 -10 9 -10 20 0 11 -4 20
-10 20 -5 0 -10 7 -10 16 0 9 -11 30 -25 48 -14 17 -29 36 -34 42 -5 6 -12 20
-16 33 -3 12 -17 33 -31 46 -13 13 -24 28 -24 33 0 6 -7 12 -15 16 -8 3 -15
10 -15 16 0 6 -29 39 -65 73 -59 57 -78 90 -57 99 10 4 62 85 62 97 0 5 4 11
8 13 5 2 23 29 41 61 18 32 40 61 47 64 8 3 14 14 14 24 0 10 5 19 10 19 6 0
10 7 10 15 0 8 5 15 10 15 6 0 10 6 10 13 0 6 11 25 25 41 14 16 25 35 25 43
0 7 5 13 10 13 6 0 10 6 10 13 0 7 9 23 20 35 11 12 20 28 20 37 0 8 5 15 10
15 6 0 10 5 10 11 0 6 6 17 13 24 6 8 23 28 37 44 29 36 40 39 40 11z m-1245
-690 c-4 -6 25 -10 79 -10 51 0 86 -4 86 -10 0 -5 14 -10 30 -10 17 0 38 -4
48 -9 9 -5 31 -14 47 -21 17 -7 37 -16 45 -21 8 -5 23 -12 33 -15 9 -4 17 -10
17 -15 0 -5 9 -9 20 -9 11 0 20 -4 20 -10 0 -5 7 -10 15 -10 8 0 15 -4 15 -10
0 -5 5 -10 10 -10 6 0 20 -9 32 -20 12 -11 28 -20 35 -20 7 0 13 -7 13 -15 0
-8 5 -15 11 -15 11 0 93 -81 124 -124 11 -15 30 -40 42 -54 13 -15 23 -35 23
-44 0 -10 5 -18 10 -18 6 0 10 -9 10 -20 0 -11 5 -20 10 -20 6 0 10 -9 10 -20
0 -11 5 -20 10 -20 6 0 10 -8 10 -19 0 -10 6 -24 14 -30 8 -6 16 -24 19 -39 4
-15 11 -49 18 -77 15 -63 24 -385 10 -385 -5 0 -11 -19 -14 -42 -10 -74 -19
-107 -33 -119 -8 -6 -14 -22 -14 -35 0 -13 -4 -24 -10 -24 -5 0 -10 -9 -10
-19 0 -11 -4 -23 -10 -26 -5 -3 -10 -14 -10 -23 0 -10 -9 -24 -20 -32 -11 -8
-20 -20 -20 -28 0 -20 -190 -222 -210 -222 -5 0 -10 -4 -10 -10 0 -5 -7 -10
-15 -10 -8 0 -15 -4 -15 -10 0 -5 -6 -10 -14 -10 -8 0 -16 -7 -20 -15 -3 -8
-11 -15 -18 -15 -7 0 -24 -9 -38 -20 -14 -11 -33 -20 -42 -20 -10 0 -18 -4
-18 -10 0 -5 -11 -10 -25 -10 -14 0 -25 -4 -25 -10 0 -5 -13 -10 -30 -10 -16
0 -30 -3 -30 -7 0 -5 -35 -16 -78 -26 -60 -14 -106 -17 -212 -14 -130 3 -260
23 -260 39 0 5 -11 8 -24 8 -14 0 -28 5 -31 10 -3 6 -17 10 -31 10 -13 0 -24
5 -24 10 0 6 -9 10 -20 10 -11 0 -20 5 -20 10 0 6 -7 10 -15 10 -15 0 -25 6
-60 38 -7 6 -18 12 -24 12 -6 0 -11 5 -11 10 0 6 -7 10 -15 10 -8 0 -15 5 -15
10 0 6 -7 10 -15 10 -8 0 -15 4 -15 8 0 5 -11 15 -25 22 -14 7 -25 17 -25 22
0 5 -22 31 -50 58 -27 27 -50 53 -50 59 0 6 -10 20 -22 33 -13 13 -29 35 -37
51 -8 15 -18 27 -23 27 -4 0 -8 11 -8 25 0 14 -3 25 -7 25 -5 0 -16 19 -27 43
-10 23 -22 50 -27 59 -5 10 -9 29 -9 43 0 14 -4 25 -10 25 -6 0 -10 82 -10
226 0 208 2 232 22 293 13 36 28 70 35 74 7 4 13 17 13 27 0 11 5 20 10 20 6
0 10 9 10 20 0 11 5 20 10 20 6 0 10 8 10 18 0 10 9 28 20 40 11 12 20 26 20
32 0 5 18 28 39 50 22 22 50 54 63 70 12 16 26 30 30 30 4 0 27 20 52 45 26
25 53 45 61 45 8 0 15 5 15 10 0 6 7 10 15 10 8 0 15 5 15 10 0 6 9 10 20 10
11 0 20 4 20 9 0 5 8 11 18 15 9 3 24 9 32 14 40 23 61 32 80 32 11 0 20 5 20
10 0 6 18 10 40 10 22 0 40 5 40 10 0 6 34 10 81 10 51 0 78 4 74 10 -4 6 18
10 60 10 42 0 64 -4 60 -10z m3643 -1617 c2 -8 21 -13 48 -13 24 0 44 -4 44
-10 0 -5 16 -10 35 -10 19 0 35 -4 35 -10 0 -5 11 -10 25 -10 14 0 25 -4 25
-10 0 -5 8 -10 18 -11 9 0 31 -9 47 -20 17 -11 38 -22 48 -25 9 -4 17 -10 17
-15 0 -5 7 -9 15 -9 8 0 15 -4 15 -10 0 -5 7 -10 15 -10 8 0 15 -4 15 -10 0
-5 5 -10 10 -10 14 0 60 -46 60 -60 0 -5 4 -10 9 -10 13 0 101 -87 101 -100 0
-5 5 -10 10 -10 6 0 10 -6 10 -13 0 -7 9 -23 20 -35 11 -12 20 -28 20 -37 0
-8 5 -15 10 -15 6 0 10 -9 10 -20 0 -11 7 -23 15 -26 8 -4 15 -15 15 -25 0
-10 4 -19 9 -19 8 0 15 -22 28 -97 3 -18 9 -33 14 -33 5 0 9 -18 9 -39 0 -22
5 -43 10 -46 6 -4 10 -65 10 -151 0 -89 -4 -144 -10 -144 -5 0 -10 -18 -10
-39 0 -22 -4 -43 -10 -46 -5 -3 -10 -24 -10 -46 0 -21 -4 -39 -10 -39 -5 0
-10 -9 -10 -19 0 -21 -50 -124 -62 -129 -5 -2 -8 -10 -8 -18 0 -8 -4 -14 -10
-14 -5 0 -10 -7 -10 -15 0 -9 -10 -26 -22 -39 -13 -13 -32 -36 -43 -51 -32
-45 -72 -85 -85 -85 -6 0 -8 -4 -5 -10 3 -5 1 -10 -4 -10 -6 0 -19 -8 -29 -18
-35 -32 -62 -52 -72 -52 -6 0 -10 -4 -10 -10 0 -5 -7 -10 -15 -10 -8 0 -15 -4
-15 -10 0 -5 -9 -10 -20 -10 -11 0 -20 -4 -20 -9 0 -12 -98 -61 -121 -61 -10
0 -21 -4 -24 -10 -3 -5 -19 -10 -36 -10 -16 0 -29 -4 -29 -10 0 -6 -85 -10
-235 -10 -150 0 -235 4 -235 10 0 6 -16 10 -35 10 -19 0 -35 5 -35 10 0 6 -13
10 -30 10 -16 0 -30 5 -30 10 0 6 -6 10 -13 10 -23 0 -67 25 -67 38 0 6 -9 12
-20 12 -11 0 -20 3 -20 8 0 4 -15 14 -32 21 -18 8 -38 20 -44 25 -6 6 -33 29
-59 51 -64 54 -86 76 -110 109 -11 16 -29 38 -40 50 -11 11 -31 44 -45 71 -14
28 -28 51 -32 53 -5 2 -8 15 -8 28 0 13 -4 24 -10 24 -5 0 -10 11 -10 24 0 14
-4 27 -10 31 -10 6 -25 51 -42 125 -15 65 -22 320 -9 333 6 6 11 30 11 54 0
24 4 43 10 43 5 0 13 18 16 40 4 22 10 40 15 40 5 0 9 11 9 25 0 14 5 25 10
25 6 0 10 9 10 20 0 11 5 20 10 20 6 0 10 11 10 25 0 14 4 25 9 25 5 0 12 8
16 19 5 16 16 31 55 78 5 7 10 15 10 18 0 10 159 165 170 165 5 0 10 5 10 10
0 6 7 10 15 10 8 0 15 5 15 10 0 6 7 10 15 10 8 0 15 5 15 10 0 6 7 10 15 10
9 0 18 7 21 15 4 8 15 15 25 15 10 0 19 5 19 10 0 6 9 10 20 10 11 0 20 5 20
10 0 6 11 10 24 10 14 0 28 5 31 10 3 6 19 10 36 10 16 0 29 5 29 10 0 6 18
10 41 10 23 0 47 7 56 16 13 13 40 15 171 12 113 -2 156 -6 160 -15z"/>
<path d="M4740 9094 c-14 -7 -35 -12 -47 -9 -13 2 -23 0 -23 -4 0 -6 -63 -47
-67 -43 -5 4 -49 -43 -46 -49 1 -3 -7 -16 -17 -27 -35 -37 -43 -73 -45 -202
-1 -92 2 -128 12 -138 11 -11 16 -47 12 -78 0 -4 3 -10 8 -13 16 -12 33 -51
33 -76 0 -15 4 -24 10 -20 6 3 10 -1 10 -9 0 -9 8 -16 17 -16 9 0 14 -2 11 -5
-8 -9 51 -65 68 -65 8 0 14 -4 14 -10 0 -5 9 -10 21 -10 11 0 18 -4 15 -9 -3
-5 37 -9 89 -10 60 -1 95 2 95 9 0 5 9 10 20 10 12 0 30 9 42 20 12 11 28 20
35 20 8 0 12 4 9 9 -3 5 6 17 19 27 14 10 25 25 25 32 0 7 12 24 26 37 17 16
24 30 20 41 -4 10 -2 20 4 24 18 11 33 102 37 228 3 81 1 122 -6 122 -6 0 -11
16 -11 35 0 19 -4 35 -10 35 -5 0 -10 7 -10 15 0 9 -7 18 -15 21 -8 4 -15 12
-15 20 0 8 -5 14 -10 14 -11 0 -62 34 -87 57 -7 6 -24 10 -38 9 -14 -2 -25 1
-25 6 0 5 -4 6 -10 3 -5 -3 -10 -1 -10 4 0 16 -130 12 -160 -5z"/>
<path d="M4540 8349 c0 -5 -4 -8 -8 -5 -5 3 -21 -2 -36 -10 -16 -7 -37 -14
-47 -14 -11 0 -19 -4 -19 -10 0 -5 -11 -10 -25 -10 -14 0 -25 -4 -25 -10 0 -5
-4 -10 -10 -10 -15 0 -70 -58 -70 -75 0 -8 -4 -15 -10 -15 -5 0 -10 -20 -10
-45 0 -32 -5 -47 -16 -52 -12 -4 -14 -14 -9 -40 5 -27 2 -38 -12 -50 -13 -10
-15 -16 -5 -19 6 -3 12 -12 12 -20 0 -9 -4 -13 -8 -10 -5 3 -9 -44 -9 -105 -1
-61 1 -108 4 -105 3 3 14 -4 26 -15 11 -10 33 -19 49 -19 15 0 28 -4 28 -10 0
-5 15 -10 33 -10 18 0 38 -5 44 -11 6 -6 30 -12 53 -13 23 -1 45 -7 48 -13 4
-5 27 -10 50 -9 29 1 47 -4 53 -14 6 -10 8 -11 9 -2 0 9 5 10 18 4 9 -5 93
-10 185 -11 137 -2 167 0 161 11 -6 11 -5 11 8 0 10 -8 17 -9 20 -2 1 5 23 11
48 12 25 2 48 7 52 13 5 6 8 5 8 -2 0 -7 5 -13 11 -13 5 0 7 5 4 10 -3 6 2 11
12 12 24 2 47 5 53 8 14 5 38 11 68 16 17 4 32 10 32 15 0 5 11 9 25 9 14 0
25 5 25 10 0 6 8 10 18 10 21 0 48 42 38 58 -4 6 -7 60 -7 121 -1 61 -5 108
-10 105 -5 -3 -9 19 -9 48 0 34 -3 48 -9 39 -6 -9 -10 -3 -14 20 -9 51 -25
115 -26 105 0 -5 -12 1 -26 14 -13 12 -22 27 -18 33 3 6 1 7 -6 3 -6 -4 -13
-1 -16 6 -3 8 -18 15 -33 16 -15 1 -28 7 -30 12 -2 6 -12 10 -21 10 -10 0 -21
3 -25 7 -8 8 -77 33 -93 33 -11 0 -24 -9 -67 -45 -23 -20 -56 -35 -76 -35 -11
0 -20 -4 -20 -9 0 -4 -42 -9 -92 -10 -70 -1 -89 1 -78 10 13 9 12 10 -3 5 -10
-3 -28 -1 -40 6 -12 7 -28 13 -35 14 -7 1 -25 16 -41 33 -28 30 -81 44 -81 20z"/>
<path d="M4725 6080 c-3 -5 -17 -10 -31 -10 -13 0 -24 -4 -24 -10 0 -5 -9 -10
-20 -10 -11 0 -20 -7 -20 -15 0 -8 -4 -15 -8 -15 -18 0 -82 -69 -82 -89 0 -11
-4 -21 -9 -21 -5 0 -12 -18 -16 -40 -4 -22 -11 -38 -16 -34 -5 3 -9 -33 -9
-85 0 -50 4 -91 9 -91 5 0 13 -25 16 -55 4 -30 11 -58 16 -61 5 -3 9 -16 9
-29 0 -13 5 -27 10 -30 6 -3 10 -14 10 -23 0 -35 122 -162 155 -162 8 0 15 -4
15 -10 0 -6 42 -10 105 -10 63 0 105 4 105 10 0 6 7 10 15 10 25 0 125 91 125
114 0 9 4 16 10 16 5 0 12 11 16 25 3 14 10 25 15 25 5 0 9 14 9 30 0 17 4 30
9 30 21 0 41 304 22 323 -6 6 -11 19 -11 29 0 10 -4 18 -10 18 -5 0 -10 9 -10
21 0 19 -64 88 -82 89 -5 0 -8 7 -8 15 0 8 -9 15 -20 15 -11 0 -20 5 -20 10 0
6 -13 10 -30 10 -16 0 -30 5 -30 10 0 6 -41 10 -104 10 -59 0 -108 -4 -111
-10z"/>
<path d="M4545 5340 c4 -6 -7 -13 -25 -16 -17 -4 -33 -11 -36 -15 -3 -5 -13
-9 -22 -9 -28 0 -112 -44 -118 -62 -3 -10 -10 -18 -15 -18 -5 0 -9 -7 -9 -15
0 -8 -4 -15 -10 -15 -5 0 -10 -9 -10 -20 0 -11 -4 -20 -9 -20 -4 0 -11 -23
-14 -52 -4 -28 -11 -56 -17 -62 -5 -5 -10 -31 -10 -57 0 -26 -4 -51 -10 -54
-5 -3 -10 -45 -10 -93 1 -86 12 -122 39 -122 6 0 11 -4 11 -10 0 -5 11 -10 24
-10 14 0 28 -4 31 -10 3 -5 21 -10 40 -10 19 0 36 -4 39 -9 6 -9 27 -14 146
-31 41 -6 77 -15 78 -20 5 -13 392 -13 392 -1 0 5 35 14 78 20 122 18 142 23
148 32 3 5 20 9 39 9 19 0 37 5 40 10 3 6 17 10 31 10 13 0 24 5 24 10 0 6 7
10 15 10 29 0 31 56 9 303 -4 37 -10 67 -15 67 -5 0 -9 13 -9 29 0 17 -4 33
-10 36 -5 3 -10 15 -10 26 0 10 -4 19 -10 19 -5 0 -10 6 -10 13 0 18 -34 57
-49 57 -6 0 -11 5 -11 10 0 6 -9 10 -19 10 -11 0 -23 5 -26 10 -3 6 -13 10
-22 10 -22 0 -93 32 -93 42 0 19 -64 7 -84 -16 -31 -36 -92 -66 -131 -66 -19
0 -35 -4 -35 -10 0 -5 -20 -10 -45 -10 -25 0 -45 5 -45 10 0 6 -16 10 -35 10
-39 0 -100 31 -130 66 -14 16 -31 24 -53 24 -20 0 -31 -4 -27 -10z"/>
<path d="M1220 3650 c0 -5 -8 -10 -18 -10 -22 0 -72 -22 -72 -32 0 -5 -7 -8
-15 -8 -8 0 -15 -4 -15 -9 0 -4 -13 -22 -30 -39 -16 -18 -30 -38 -30 -46 0 -8
-4 -18 -10 -21 -5 -3 -10 -24 -10 -46 0 -21 -4 -39 -10 -39 -13 0 -13 -132 -1
-146 5 -5 12 -34 14 -64 7 -76 18 -120 28 -120 5 0 9 -9 9 -20 0 -11 5 -20 10
-20 6 0 10 -7 10 -15 0 -17 93 -115 109 -115 6 0 11 -4 11 -10 0 -5 9 -10 19
-10 11 0 26 -7 35 -15 17 -18 172 -22 161 -5 -3 6 1 10 10 10 18 0 78 30 83
43 2 4 8 7 14 7 15 0 68 60 68 76 0 8 5 14 10 14 6 0 10 9 10 20 0 11 5 20 10
20 6 0 10 11 10 25 0 14 4 25 9 25 12 0 22 73 27 218 4 82 2 122 -5 122 -6 0
-11 16 -11 35 0 19 -4 35 -10 35 -5 0 -10 7 -10 15 0 8 -3 15 -7 15 -5 0 -17
14 -28 30 -11 16 -26 30 -32 30 -7 0 -13 5 -13 10 0 6 -9 10 -20 10 -11 0 -20
5 -20 10 0 6 -11 10 -24 10 -14 0 -28 5 -31 10 -4 6 -55 10 -121 10 -69 0
-114 -4 -114 -10z"/>
<path d="M1040 2910 c0 -5 -16 -10 -36 -10 -21 0 -33 -4 -29 -10 4 -6 -7 -10
-24 -10 -17 0 -31 -4 -31 -10 0 -5 -15 -16 -32 -25 -57 -26 -108 -120 -108
-198 0 -24 -5 -40 -15 -43 -11 -5 -15 -21 -15 -60 0 -30 -4 -54 -10 -54 -6 0
-10 -37 -10 -90 0 -60 4 -90 11 -90 7 0 22 -11 35 -25 15 -16 34 -25 54 -25
16 0 30 -4 30 -10 0 -5 16 -10 35 -10 19 0 35 -4 35 -10 0 -5 22 -10 49 -10
28 0 52 -4 55 -9 20 -32 592 -32 612 0 3 5 27 9 55 9 27 0 49 5 49 10 0 6 16
10 35 10 19 0 35 5 35 10 0 6 13 10 29 10 16 0 31 6 35 15 3 8 12 15 19 15 30
0 40 46 33 151 -3 55 -11 109 -16 119 -6 10 -10 37 -10 59 0 23 -4 41 -10 41
-5 0 -10 12 -10 27 0 33 -40 123 -55 123 -6 0 -17 9 -25 20 -8 11 -22 20 -31
20 -9 0 -19 7 -23 15 -3 8 -17 15 -31 15 -14 0 -25 5 -25 10 0 6 -13 10 -30
10 -16 0 -30 5 -30 10 0 6 -18 10 -40 10 -22 0 -40 -4 -40 -10 0 -5 -5 -10
-11 -10 -7 0 -22 -11 -35 -25 -13 -14 -31 -25 -42 -25 -10 0 -23 -5 -29 -11
-18 -18 -189 -12 -234 8 -21 9 -39 20 -39 25 0 4 -6 8 -13 8 -7 0 -19 9 -27
20 -10 14 -26 20 -52 20 -21 0 -38 -4 -38 -10z"/>
<path d="M4840 2012 c0 -5 -21 -10 -47 -11 -27 -1 -49 -6 -51 -11 -2 -6 -15
-10 -28 -10 -13 0 -24 -4 -24 -10 0 -5 -4 -10 -10 -10 -5 0 -19 -9 -30 -20
-11 -11 -18 -20 -15 -20 3 0 -9 -13 -25 -29 -17 -15 -30 -35 -30 -44 0 -9 -4
-18 -8 -21 -4 -2 -9 -19 -10 -37 -1 -17 -6 -37 -10 -43 -9 -15 -9 -156 1 -156
4 0 7 -22 7 -48 0 -26 5 -53 12 -60 6 -6 11 -25 10 -42 0 -17 4 -28 9 -25 5 4
9 -5 9 -18 0 -14 7 -27 15 -31 8 -3 15 -15 15 -26 0 -12 5 -18 10 -15 6 3 10
1 10 -5 0 -13 25 -40 37 -40 5 0 15 -9 23 -20 8 -11 20 -20 27 -20 6 0 16 -7
21 -17 6 -9 16 -14 25 -10 9 3 22 0 30 -7 17 -17 124 -18 131 -1 2 7 16 11 30
10 19 -2 23 1 19 13 -5 11 -2 14 10 9 9 -3 17 -2 17 3 0 5 8 11 18 14 19 6 80
56 68 56 -4 0 4 11 18 24 16 14 26 34 26 52 0 20 3 25 9 15 6 -9 10 -5 14 15
3 16 8 40 11 54 3 14 7 37 8 53 1 15 7 27 13 27 16 0 14 211 -2 228 -7 7 -13
27 -13 43 0 16 -4 29 -10 29 -5 0 -10 5 -10 11 0 19 -108 119 -129 119 -11 0
-21 4 -23 10 -1 5 -24 10 -50 11 -27 1 -48 6 -48 11 0 4 -18 8 -40 8 -22 0
-40 -4 -40 -8z"/>
<path d="M4605 1262 c-3 -8 -8 -12 -12 -9 -3 3 -17 0 -32 -7 -14 -7 -32 -11
-38 -9 -7 3 -13 0 -13 -6 0 -5 -15 -13 -34 -16 -44 -9 -99 -60 -123 -113 -10
-23 -21 -42 -25 -42 -5 0 -8 -24 -8 -53 0 -29 -5 -58 -10 -63 -6 -6 -11 -38
-12 -72 -1 -34 -5 -62 -9 -62 -4 0 -7 -29 -7 -65 0 -36 3 -65 7 -65 5 0 11
-13 15 -30 4 -24 11 -30 31 -30 14 0 25 -4 25 -8 0 -4 14 -9 32 -10 18 -2 35
-7 38 -12 3 -5 25 -10 48 -11 23 -2 42 -6 42 -10 0 -6 24 -10 172 -27 37 -4
73 -13 80 -20 14 -14 62 -16 53 -2 -3 6 -2 10 4 10 5 0 12 -6 14 -12 4 -9 6
-9 6 -2 1 8 12 9 36 4 20 -4 35 -4 35 1 0 5 5 9 11 9 5 0 7 -4 4 -10 -4 -6 5
-10 20 -10 15 0 24 4 20 10 -3 6 0 10 7 11 7 0 22 2 33 4 11 2 41 5 67 6 26 2
45 6 42 11 -3 4 20 8 50 8 30 0 57 4 60 8 2 4 24 9 48 11 24 1 45 6 46 12 2 5
19 9 38 9 21 0 33 4 29 10 -4 6 7 10 25 10 17 0 29 4 26 8 -3 5 4 16 15 26 18
15 20 27 18 114 -1 67 -7 102 -17 114 -9 11 -13 33 -10 62 2 29 -1 46 -8 46
-6 0 -11 15 -12 32 0 18 -6 34 -11 36 -6 2 -11 16 -11 31 0 30 -60 101 -85
101 -8 0 -15 4 -15 9 0 5 -12 11 -27 13 -16 2 -27 8 -26 15 2 8 -6 12 -20 11
-12 -1 -44 9 -70 22 -47 22 -48 22 -62 4 -8 -11 -15 -23 -15 -27 0 -5 -4 -5
-10 -2 -5 3 -10 2 -10 -4 0 -11 -56 -41 -77 -41 -7 0 -13 -4 -13 -10 0 -14
-150 -13 -205 2 -25 7 -45 16 -45 20 0 4 -7 8 -15 8 -9 0 -18 7 -21 15 -4 8
-10 12 -15 9 -5 -3 -9 1 -9 8 0 8 -13 19 -29 25 -24 9 -31 8 -36 -5z"/>
</g>
</svg>
