<?xml version="1.0" encoding="UTF-8"?>
<svg version="1.1" xmlns="http://www.w3.org/2000/svg" width="512" height="512">
<path d="M0 0 C0.88187988 0.24169922 1.76375977 0.48339844 2.67236328 0.73242188 C25.40826199 7.15750066 47.84367635 18.21859009 67 32 C68.06605469 32.75667969 69.13210938 33.51335938 70.23046875 34.29296875 C73.20685438 36.46846407 76.11285528 38.70761497 79 41 C80.46373047 42.15628906 80.46373047 42.15628906 81.95703125 43.3359375 C96.91279989 55.4342645 110.80402729 69.33870743 122 85 C122.4527832 85.62438965 122.90556641 86.2487793 123.37207031 86.89208984 C130.32478052 96.52573828 136.52030711 106.45907199 142 117 C142.60908203 118.16909912 142.60908203 118.16909912 143.23046875 119.36181641 C170.87988159 173.16119316 174.98809291 235.12502995 159 293 C158.75830078 293.88187988 158.51660156 294.76375977 158.26757812 295.67236328 C151.84249934 318.40826199 140.78140991 340.84367635 127 360 C126.24332031 361.06605469 125.48664063 362.13210938 124.70703125 363.23046875 C122.53153593 366.20685438 120.29238503 369.11285528 118 372 C117.22914063 372.97582031 116.45828125 373.95164062 115.6640625 374.95703125 C103.5657355 389.91279989 89.66129257 403.80402729 74 415 C73.37561035 415.4527832 72.7512207 415.90556641 72.10791016 416.37207031 C62.47426172 423.32478052 52.54092801 429.52030711 42 435 C40.83090088 435.60908203 40.83090088 435.60908203 39.63818359 436.23046875 C-14.16119316 463.87988159 -76.12502995 467.98809291 -134 452 C-134.88187988 451.75830078 -135.76375977 451.51660156 -136.67236328 451.26757812 C-159.40826199 444.84249934 -181.84367635 433.78140991 -201 420 C-202.06605469 419.24332031 -203.13210937 418.48664063 -204.23046875 417.70703125 C-207.20685438 415.53153593 -210.11285528 413.29238503 -213 411 C-213.97582031 410.22914063 -214.95164062 409.45828125 -215.95703125 408.6640625 C-230.91279989 396.5657355 -244.80402729 382.66129257 -256 367 C-256.4527832 366.37561035 -256.90556641 365.7512207 -257.37207031 365.10791016 C-264.32478052 355.47426172 -270.52030711 345.54092801 -276 335 C-276.40605469 334.22060059 -276.81210937 333.44120117 -277.23046875 332.63818359 C-304.87988159 278.83880684 -308.98809291 216.87497005 -293 159 C-292.75830078 158.11812012 -292.51660156 157.23624023 -292.26757812 156.32763672 C-285.84249934 133.59173801 -274.78140991 111.15632365 -261 92 C-260.24332031 90.93394531 -259.48664063 89.86789063 -258.70703125 88.76953125 C-256.53153593 85.79314562 -254.29238503 82.88714472 -252 80 C-251.22914063 79.02417969 -250.45828125 78.04835938 -249.6640625 77.04296875 C-237.5657355 62.08720011 -223.66129257 48.19597271 -208 37 C-207.37561035 36.5472168 -206.7512207 36.09443359 -206.10791016 35.62792969 C-196.47426172 28.67521948 -186.54092801 22.47969289 -176 17 C-175.22060059 16.59394531 -174.44120117 16.18789063 -173.63818359 15.76953125 C-119.83880684 -11.87988159 -57.87497005 -15.98809291 0 0 Z " fill="#2F5AC5" transform="translate(323,30)"/>
<path d="M0 0 C1.11536636 -0.01007584 1.11536636 -0.01007584 2.25326538 -0.02035522 C4.70740468 -0.03932845 7.16127047 -0.04325886 9.61547852 -0.04541016 C11.3241436 -0.05183792 13.03280757 -0.05856627 14.74147034 -0.06558228 C18.32165072 -0.07755288 21.90173461 -0.08126326 25.48193359 -0.08007812 C30.06648315 -0.0798748 34.65041374 -0.10719146 39.23481655 -0.14162254 C42.76331925 -0.16387272 46.29167244 -0.16791627 49.82023811 -0.16685867 C51.51031696 -0.16921691 53.20039979 -0.17805304 54.89040947 -0.19352341 C57.25550452 -0.21314862 59.61925775 -0.20736035 61.984375 -0.1953125 C62.68012131 -0.20655151 63.37586761 -0.21779053 64.09269714 -0.22937012 C68.84395931 -0.16795363 71.19895198 0.96880243 74.55688477 4.29052734 C76.92312868 7.70626236 77.19412781 11.60036858 77.70532227 15.63427734 C77.8027623 16.35174637 77.90020233 17.06921539 78.00059509 17.8084259 C78.20878838 19.3416058 78.41412428 20.87517595 78.61685181 22.40908813 C80.04627472 33.21457266 81.52315322 43.95184677 83.86938477 54.60302734 C87.27871179 70.72963195 87.27871179 70.72963195 85.55688477 77.29052734 C83.54242171 80.26407832 81.07422921 82.73893873 78.55688477 85.29052734 C78.10713287 85.75019897 77.65738098 86.20987061 77.19400024 86.68347168 C73.5352937 90.41908063 69.83115681 94.10776635 66.11938477 97.79052734 C64.99480147 98.91008367 63.87045072 100.02987364 62.74633789 101.14990234 C60.01919133 103.86614268 57.2889257 106.57921026 54.55688477 109.29052734 C67.11271087 148.56493352 109.42487339 182.42663871 143.55688477 202.29052734 C144.2158374 202.68989502 144.87479004 203.0892627 145.55371094 203.50073242 C148.07010457 204.49287543 149.03073758 204.17247246 151.55688477 203.29052734 C153.17913316 202.0911821 153.17913316 202.0911821 154.64135742 200.53076172 C155.21520172 199.95346313 155.78904602 199.37616455 156.38027954 198.78137207 C157.29141006 197.84231018 157.29141006 197.84231018 158.22094727 196.88427734 C158.85422943 196.24437866 159.4875116 195.60447998 160.13998413 194.94519043 C162.16116649 192.90060559 164.17191682 190.84613271 166.18188477 188.79052734 C168.20068977 186.73668365 170.22160681 184.68498178 172.24520874 182.63586426 C173.50379136 181.36027783 174.75927786 180.08162783 176.01138306 178.79968262 C181.34061935 173.3788124 181.34061935 173.3788124 184.60983276 173.14151001 C190.54090064 173.13007736 196.11354243 173.67535723 201.93969727 174.75146484 C202.79763885 174.90209381 203.65558044 175.05272278 204.53952026 175.20791626 C207.25513263 175.68579328 209.96856049 176.1748404 212.68188477 176.66552734 C216.24607167 177.30360059 219.81127406 177.93567177 223.37719727 178.56396484 C224.67454803 178.79487823 224.67454803 178.79487823 225.99810791 179.03045654 C232.7116399 180.20304888 239.42214015 181.03461562 246.20483398 181.6875 C250.99558242 182.54934622 255.62163674 184.2548715 258.55688477 188.29052734 C258.85803218 190.83963055 258.97712587 193.14588804 258.9609375 195.69604492 C258.97123238 196.82341316 258.97123238 196.82341316 258.98173523 197.97355652 C259.00005236 200.46091553 258.9961578 202.94764651 258.99047852 205.43505859 C258.9950391 207.16517848 259.0003443 208.89529656 259.00636292 210.62541199 C259.01530449 214.25449981 259.01286039 217.88336772 259.00292969 221.51245117 C258.99145869 226.15637639 259.01161705 230.79953912 259.04084682 235.44336414 C259.05922507 239.0182526 259.05891281 242.59295906 259.0532093 246.16788292 C259.05305618 247.87945307 259.05909323 249.59103562 259.07150078 251.30256081 C259.08643417 253.70112967 259.07571662 256.09830006 259.05859375 258.49682617 C259.06826172 259.19989899 259.07792969 259.9029718 259.08789062 260.62734985 C259.01359703 265.61506355 257.64726914 268.42841457 254.55688477 272.29052734 C251.06329997 274.98624244 246.97866925 274.59470618 242.74438477 274.54052734 C241.95741211 274.53303467 241.17043945 274.52554199 240.35961914 274.51782227 C200.36819285 273.8214735 161.90139413 263.71318989 126.48022461 245.28466797 C124.62500481 244.3257374 122.7589051 243.39212577 120.88891602 242.46240234 C102.80225008 233.32448906 86.82368072 221.01802144 71.89672852 207.41162109 C69.76883662 205.482664 67.60967618 203.60016382 65.43188477 201.72802734 C57.62217472 194.88866203 51.04468333 187.38093373 44.55688477 179.29052734 C43.01571717 177.43594583 41.4740558 175.58177453 39.93188477 173.72802734 C27.67475748 158.68134695 17.75883543 141.85132666 9.55688477 124.29052734 C9.17371094 123.47535645 8.79053711 122.66018555 8.39575195 121.8203125 C0.02027614 103.73437662 -6.32187365 85.28496558 -9.98022461 65.69238281 C-10.60453791 62.45293438 -11.37342612 59.25115764 -12.13061523 56.04052734 C-14.73759094 43.65739275 -15.62136848 31.11190474 -15.81811523 18.47802734 C-15.84413818 17.553125 -15.87016113 16.62822266 -15.89697266 15.67529297 C-15.91193699 10.06521705 -15.34104702 6.64663708 -11.44311523 2.29052734 C-7.85404852 -0.14802928 -4.18938065 -0.00544181 0 0 Z " fill="#F0F1F1" transform="translate(134.443115234375,118.70947265625)"/>
<path d="M0 0 C1.11536636 -0.01007584 1.11536636 -0.01007584 2.25326538 -0.02035522 C4.70740468 -0.03932845 7.16127047 -0.04325886 9.61547852 -0.04541016 C11.3241436 -0.05183792 13.03280757 -0.05856627 14.74147034 -0.06558228 C18.32165072 -0.07755288 21.90173461 -0.08126326 25.48193359 -0.08007812 C30.06648315 -0.0798748 34.65041374 -0.10719146 39.23481655 -0.14162254 C42.76331925 -0.16387272 46.29167244 -0.16791627 49.82023811 -0.16685867 C51.51031696 -0.16921691 53.20039979 -0.17805304 54.89040947 -0.19352341 C57.25550452 -0.21314862 59.61925775 -0.20736035 61.984375 -0.1953125 C62.68012131 -0.20655151 63.37586761 -0.21779053 64.09269714 -0.22937012 C68.84399139 -0.16795321 71.19865625 0.96916979 74.55688477 4.29052734 C76.95094797 7.73556211 77.21523355 11.70383338 77.74047852 15.77490234 C77.84151382 16.50815735 77.94254913 17.24141235 78.04664612 17.99688721 C78.36925268 20.34391326 78.6825268 22.69205088 78.99438477 25.04052734 C79.40468306 28.09852679 79.81988877 31.15580123 80.24047852 34.21240234 C80.39616302 35.34696869 80.39616302 35.34696869 80.55499268 36.50445557 C81.28068087 41.66231574 82.17018728 46.77146423 83.16235352 51.88427734 C84.20175341 57.2769127 85.15615719 62.54803413 85.43188477 68.04052734 C85.53243164 69.33474609 85.63297852 70.62896484 85.73657227 71.96240234 C84.84231424 78.72125441 78.17156682 83.71709839 73.55688477 88.29052734 C72.54646205 89.320347 71.53797581 90.35207046 70.53149414 91.38574219 C68.01137108 93.96544757 65.46794038 96.52039706 62.91259766 99.06518555 C61.35599088 100.61637462 59.80488305 102.17292127 58.25415039 103.72998047 C53.51074107 108.47626344 48.7157103 113.09169537 43.61425781 117.45581055 C39.06911597 121.50906092 34.84215003 125.90383184 30.55688477 130.22802734 C29.5818609 131.20808045 28.60660197 132.18789975 27.63110352 133.16748047 C25.27071859 135.53955047 22.91271572 137.91393595 20.55688477 140.29052734 C15.33302517 135.12728915 11.74273375 130.33111293 8.86938477 123.60302734 C8.5383374 122.83756592 8.20729004 122.07210449 7.86621094 121.28344727 C0.14956625 103.12381167 -6.35325719 85.11688861 -9.98022461 65.69238281 C-10.60453791 62.45293438 -11.37342612 59.25115764 -12.13061523 56.04052734 C-14.73759094 43.65739275 -15.62136848 31.11190474 -15.81811523 18.47802734 C-15.84413818 17.553125 -15.87016113 16.62822266 -15.89697266 15.67529297 C-15.91193699 10.06521705 -15.34104702 6.64663708 -11.44311523 2.29052734 C-7.85404852 -0.14802928 -4.18938065 -0.00544181 0 0 Z " fill="#F1F1F2" transform="translate(134.443115234375,118.70947265625)"/>
<path d="M0 0 C0.33 0 0.66 0 1 0 C1.19139946 2.16311767 1.32587583 4.33130181 1.4375 6.5 C1.51871094 7.7065625 1.59992188 8.913125 1.68359375 10.15625 C0.7004996 15.68404796 -2.09034708 18.1260798 -6 22 C-6.94302801 22.95925329 -7.88493233 23.91961209 -8.82592773 24.88085938 C-12.0048193 28.11254907 -15.21958983 31.30724088 -18.4375 34.5 C-19.5620833 35.61955632 -20.68643405 36.73934629 -21.81054688 37.859375 C-24.53769344 40.57561534 -27.26795907 43.28868292 -30 46 C-17.44417389 85.27440618 24.86798862 119.13611137 59 139 C59.65895264 139.39936768 60.31790527 139.79873535 60.99682617 140.21020508 C63.51396254 141.20264093 64.47298038 140.88261513 67 140 C68.63613416 138.79341851 68.63613416 138.79341851 70.11621094 137.22436523 C70.69651062 136.64383896 71.2768103 136.06331268 71.87469482 135.4651947 C72.48838928 134.83601639 73.10208374 134.20683807 73.734375 133.55859375 C74.37240051 132.91632339 75.01042603 132.27405304 75.66778564 131.61231995 C77.70234118 129.56098274 79.72621379 127.49945727 81.75 125.4375 C83.12821491 124.04423766 84.50711325 122.65165102 85.88671875 121.25976562 C89.26579046 117.84763135 92.63531864 114.42632293 96 111 C96.66 111.33 97.32 111.66 98 112 C93.68313369 116.36639351 89.35967167 120.72610861 85.0300293 125.07983398 C83.55880627 126.56109949 82.08938523 128.04415708 80.62182617 129.52905273 C78.50913891 131.66606487 76.39000368 133.79649724 74.26953125 135.92578125 C73.61725052 136.58838455 72.96496979 137.25098785 72.29292297 137.93367004 C69.02245136 141.20493817 65.99663751 143.64495262 62 146 C59.76657871 147.94143161 57.68984324 150.02959067 55.60546875 152.12890625 C55.01325027 152.71921127 54.4210318 153.3095163 53.81086731 153.91770935 C52.56717189 155.16004923 51.32597669 156.40489656 50.0871582 157.65209961 C48.18336296 159.56666044 46.2690612 161.47025036 44.35351562 163.37304688 C43.14519102 164.58269206 41.93748642 165.79295696 40.73046875 167.00390625 C39.8681086 167.86019371 39.8681086 167.86019371 38.98832703 168.73377991 C35.97934202 171.37505583 35.97934202 171.37505583 35 175 C39.60369101 177.32906838 44.21804106 179.63487057 48.84228516 181.92285156 C50.70987852 182.85516905 52.56515147 183.81209002 54.41796875 184.7734375 C73.92759035 194.51681241 95.62996106 200.10069974 117 204 C117.84481934 204.16226074 118.68963867 204.32452148 119.56005859 204.49169922 C130.83332715 206.61323684 141.9701336 207.31432513 153.4375 207.4375 C154.68869629 207.45981689 155.93989258 207.48213379 157.22900391 207.50512695 C165.91147236 207.48791562 165.91147236 207.48791562 173 203 C172.10228669 206.01958113 171.4122697 207.67480783 168.91015625 209.6484375 C165.25106771 211.34782627 162.07453001 211.40905378 158.125 211.3125 C157.34253906 211.30049561 156.56007813 211.28849121 155.75390625 211.27612305 C115.73906641 210.35637663 77.3937777 200.44829531 41.92333984 181.99414062 C40.06812004 181.03521006 38.20202033 180.10159843 36.33203125 179.171875 C18.24536532 170.03396172 2.26679595 157.7274941 -12.66015625 144.12109375 C-14.78804815 142.19213665 -16.94720859 140.30963647 -19.125 138.4375 C-26.93471005 131.59813469 -33.51220143 124.09040639 -40 116 C-41.5411676 114.14541849 -43.08282896 112.29124719 -44.625 110.4375 C-51.01046759 102.59878807 -56.49213953 94.33532349 -61.8125 85.75 C-62.29315918 84.98099365 -62.77381836 84.2119873 -63.26904297 83.41967773 C-65.74791956 79.36873404 -67.72715428 75.62050354 -69 71 C-67.33333333 72.66666667 -65.66666667 74.33333333 -64 76 C-63.22398437 75.21874756 -62.44796875 74.43749512 -61.6484375 73.63256836 C-58.73618447 70.70205392 -55.82049089 67.7749825 -52.90380859 64.84887695 C-51.6480018 63.58807785 -50.39309836 62.32637824 -49.13916016 61.0637207 C-37.27738831 49.12161017 -37.27738831 49.12161017 -31.09228516 43.86303711 C-26.50326205 39.77682529 -22.2154784 35.3622641 -17.88012695 31.01049805 C-16.17707773 29.30204466 -14.46869013 27.59905872 -12.75976562 25.89648438 C-11.66634554 24.80240417 -10.57323532 23.70801418 -9.48046875 22.61328125 C-8.97420456 22.10904129 -8.46794037 21.60480133 -7.94633484 21.08528137 C-2.9629701 16.06880949 -0.67156683 13.43133657 -0.3125 6.25 C-0.24675781 5.07953125 -0.18101562 3.9090625 -0.11328125 2.703125 C-0.07589844 1.81109375 -0.03851563 0.9190625 0 0 Z " fill="#E1E1E2" transform="translate(219,182)"/>
<path d="M0 0 C0.33 0 0.66 0 1 0 C0.51172186 7.72949952 -0.70147452 15.00269237 -2.625 22.5 C-2.89296387 23.54679932 -3.16092773 24.59359863 -3.43701172 25.67211914 C-11.48541786 56.24349411 -25.96446941 85.51212928 -46 110 C-46.79277344 110.99644531 -47.58554687 111.99289062 -48.40234375 113.01953125 C-60.47940302 127.95663514 -74.36143783 141.82027683 -90 153 C-90.93658447 153.6791748 -90.93658447 153.6791748 -91.89208984 154.37207031 C-101.52573828 161.32478052 -111.45907199 167.52030711 -122 173 C-123.16909912 173.60908203 -123.16909912 173.60908203 -124.36181641 174.23046875 C-178.16119316 201.87988159 -240.12502995 205.98809291 -298 190 C-298.88187988 189.75830078 -299.76375977 189.51660156 -300.67236328 189.26757812 C-323.40826199 182.84249934 -345.84367635 171.78140991 -365 158 C-366.06605469 157.24332031 -367.13210938 156.48664063 -368.23046875 155.70703125 C-371.20685438 153.53153593 -374.11285528 151.29238503 -377 149 C-377.97582031 148.22914063 -378.95164062 147.45828125 -379.95703125 146.6640625 C-394.90113834 134.575169 -408.84296121 120.67656317 -420 105 C-420.46873535 104.34370605 -420.9374707 103.68741211 -421.42041016 103.01123047 C-434.39669053 84.72236893 -434.39669053 84.72236893 -437 79 C-436.505 78.01 -436.505 78.01 -436 77 C-432.5126363 79.20866368 -431.18575914 81.04746952 -430 85 C-430 85.99 -430 86.98 -430 88 C-429.34 88 -428.68 88 -428 88 C-427.0234375 89.79036458 -426.046875 91.58072917 -425.0703125 93.37109375 C-424.08589976 95.16618315 -424.08589976 95.16618315 -422 96 C-422 96.99 -422 97.98 -422 99 C-421.01 99.33 -420.02 99.66 -419 100 C-417.98546989 101.73451921 -416.97611019 103.47293823 -416.0234375 105.2421875 C-414.66889346 107.56869443 -412.95740642 109.15444538 -411 111 C-409.75704173 112.34151884 -408.52904856 113.69698631 -407.3125 115.0625 C-406.71050781 115.73410156 -406.10851562 116.40570313 -405.48828125 117.09765625 C-404 119 -404 119 -403 122 C-402.12794922 122.42345703 -402.12794922 122.42345703 -401.23828125 122.85546875 C-398.14942372 124.43493691 -396.44133983 126.68952734 -394.1875 129.3125 C-390.3835307 133.61802969 -386.73491768 136.80907722 -382 140 C-382 140.66 -382 141.32 -382 142 C-381.278125 142.2475 -380.55625 142.495 -379.8125 142.75 C-376.14581968 144.3796357 -373.47319235 146.7244765 -370.45703125 149.3359375 C-367.96945021 151.46113019 -366.1376198 152.95412673 -363 154 C-363 154.66 -363 155.32 -363 156 C-361.68 156.33 -360.36 156.66 -359 157 C-359 157.66 -359 158.32 -359 159 C-358.11957031 159.26039063 -357.23914063 159.52078125 -356.33203125 159.7890625 C-353.03669278 160.98666499 -350.57865284 162.41329926 -347.6875 164.375 C-343.59659454 167.05774344 -339.60395544 169.25087727 -335.0703125 171.078125 C-333 172 -333 172 -330.74609375 173.4140625 C-327.27371547 175.41944739 -323.69632632 176.75376913 -319.9375 178.125 C-318.87692383 178.52138672 -318.87692383 178.52138672 -317.79492188 178.92578125 C-314.55632335 180.12391066 -311.35897185 181.20490571 -308 182 C-308 182.66 -308 183.32 -308 184 C-306.80375 184.12375 -305.6075 184.2475 -304.375 184.375 C-299.78588757 184.94863905 -295.73456004 186.34396368 -291.41796875 187.9765625 C-287.12297022 189.26260777 -282.87491745 189.85413704 -278.4375 190.4375 C-276.53894014 190.69179646 -274.64050552 190.94702949 -272.7421875 191.203125 C-271.78022461 191.33267578 -270.81826172 191.46222656 -269.82714844 191.59570312 C-267.20991485 191.96998109 -264.61125968 192.40000428 -262.0078125 192.859375 C-238.59187577 196.87287121 -209.9406163 198.25898728 -187 191 C-180.77284216 189.22335012 -174.58337523 187.67105878 -168.21875 186.47265625 C-165.78774746 186.00010579 -165.78774746 186.00010579 -162.6875 184.875 C-159.95589378 183.98563983 -157.85093177 183.83229813 -155 184 C-155 183.34 -155 182.68 -155 182 C-154.09378906 181.68546875 -153.18757813 181.3709375 -152.25390625 181.046875 C-143.87372186 178.10272556 -135.83139085 174.82313865 -127.8125 171.0078125 C-126.67421753 170.46797729 -126.67421753 170.46797729 -125.51293945 169.91723633 C-123.98613238 169.19190279 -122.46115959 168.46269294 -120.93823242 167.72924805 C-120.23029541 167.3919165 -119.5223584 167.05458496 -118.79296875 166.70703125 C-118.1589917 166.4025708 -117.52501465 166.09811035 -116.87182617 165.78442383 C-114.93662701 164.97344236 -113.04529713 164.45630435 -111 164 C-111 163.34 -111 162.68 -111 162 C-105.25 159 -105.25 159 -103 159 C-102.67 158.01 -102.34 157.02 -102 156 C-101.01 156 -100.02 156 -99 156 C-99 155.34 -99 154.68 -99 154 C-97.5459375 153.5978125 -97.5459375 153.5978125 -96.0625 153.1875 C-94.5465625 152.5996875 -94.5465625 152.5996875 -93 152 C-92.67 151.01 -92.34 150.02 -92 149 C-90.44140625 147.61328125 -90.44140625 147.61328125 -88.5625 146.3125 C-87.94503906 145.87550781 -87.32757813 145.43851563 -86.69140625 144.98828125 C-85 144 -85 144 -83 144 C-83 143.34 -83 142.68 -83 142 C-82.34 142 -81.68 142 -81 142 C-81 141.34 -81 140.68 -81 140 C-79.40324822 138.58829235 -77.74486398 137.24600532 -76.0625 135.9375 C-71.27471776 132.12706866 -66.97791873 128.09598998 -62.77734375 123.65234375 C-61 122 -61 122 -59 122 C-58.34 120.35 -57.68 118.7 -57 117 C-56.34 117 -55.68 117 -55 117 C-54.7525 116.443125 -54.505 115.88625 -54.25 115.3125 C-52.77075182 112.57589087 -51.06532561 110.32349131 -49 108 C-48.34 108 -47.68 108 -47 108 C-46.9071875 107.44570313 -46.814375 106.89140625 -46.71875 106.3203125 C-45.80815374 103.38067023 -44.3090059 101.35867613 -42.5 98.875 C-40.05517657 95.55530546 -40.05517657 95.55530546 -38 92 C-37.34 92 -36.68 92 -36 92 C-35.61714844 90.95779297 -35.61714844 90.95779297 -35.2265625 89.89453125 C-33.84939625 86.64459433 -32.16847973 83.72784114 -30.375 80.6875 C-27.25007138 75.3181395 -24.33649436 69.87128 -21.5625 64.3125 C-21.2207373 63.62953857 -20.87897461 62.94657715 -20.52685547 62.24291992 C-19.18059366 59.52062387 -17.96168538 56.88505615 -17 54 C-16.34 54 -15.68 54 -15 54 C-14.80664062 53.24074219 -14.61328125 52.48148437 -14.4140625 51.69921875 C-14.02347656 50.20841797 -14.02347656 50.20841797 -13.625 48.6875 C-13.36976563 47.70136719 -13.11453125 46.71523438 -12.8515625 45.69921875 C-12 43 -12 43 -10 40 C-9.855625 38.948125 -9.71125 37.89625 -9.5625 36.8125 C-9 33 -9 33 -7.62890625 29.46875 C-5.64620892 24.33486357 -4.53246952 19.05687249 -3.375 13.6875 C-2.94657183 11.73279647 -2.51693862 9.77835657 -2.0859375 7.82421875 C-1.9007959 6.96916748 -1.7156543 6.11411621 -1.52490234 5.2331543 C-1 3 -1 3 0 0 Z " fill="#2A50AC" transform="translate(487,292)"/>
<path d="M0 0 C0.88187988 0.24169922 1.76375977 0.48339844 2.67236328 0.73242188 C25.40826199 7.15750066 47.84367635 18.21859009 67 32 C68.06605469 32.75667969 69.13210938 33.51335938 70.23046875 34.29296875 C73.20685438 36.46846407 76.11285528 38.70761497 79 41 C80.46373047 42.15628906 80.46373047 42.15628906 81.95703125 43.3359375 C96.91279989 55.4342645 110.80402729 69.33870743 122 85 C122.4527832 85.62438965 122.90556641 86.2487793 123.37207031 86.89208984 C130.32478052 96.52573828 136.52030711 106.45907199 142 117 C142.60908203 118.16909912 142.60908203 118.16909912 143.23046875 119.36181641 C151.96364457 136.35456121 163.72577673 159.45285737 163 179 C161.4475237 176.11913319 160.47159991 173.38744135 159.66796875 170.21875 C159.31025391 168.8411853 159.31025391 168.8411853 158.9453125 167.43579102 C158.69523437 166.46697998 158.44515625 165.49816895 158.1875 164.5 C156.29683076 157.37943991 154.30188451 150.5390727 151.25390625 143.8125 C150.35715723 141.80110033 149.53991379 139.75350444 148.77734375 137.6875 C139.72531957 113.19689231 124.00833565 90.51418854 106.29296875 71.48046875 C104.33731934 69.36490252 102.47434119 67.20756709 100.625 65 C92.27983446 55.44595534 82.25930501 47.39394534 72 40 C71.36416992 39.54012695 70.72833984 39.08025391 70.07324219 38.60644531 C40.44039934 17.4319369 5.18354896 2.12503942 -31 -3 C-32.22074219 -3.20238281 -33.44148438 -3.40476562 -34.69921875 -3.61328125 C-64.87815252 -8.14627724 -96.30803032 -5.35309577 -125.75 1.875 C-126.4248645 2.03967773 -127.099729 2.20435547 -127.79504395 2.37402344 C-136.54727976 4.5375817 -144.74992301 7.35903396 -153 11 C-154.35162634 11.53967265 -155.70664448 12.07101019 -157.06640625 12.58984375 C-164.72332706 15.54139423 -171.90517727 18.85980971 -179 23 C-180.3094865 23.73900704 -181.61941565 24.47723005 -182.9296875 25.21484375 C-194.0260483 31.52857521 -204.60810781 38.48564725 -214.30078125 46.82421875 C-217 49 -217 49 -219 49 C-219.33 49.99 -219.66 50.98 -220 52 C-221.71990378 53.51806383 -223.50027928 54.96842869 -225.3125 56.375 C-229.11662526 59.33094245 -232.053721 62.20100552 -235 66 C-236.64958746 67.68357262 -238.31655826 69.35027897 -240 71 C-251.99037949 83.21896558 -261.52056873 97.36148685 -269.97509766 112.20117188 C-270.96467708 113.93800399 -271.97226022 115.66454018 -272.98046875 117.390625 C-285.74112376 140.1101944 -292.64566473 164.69403552 -298 190 C-298.33 190 -298.66 190 -299 190 C-298.51172186 182.27050048 -297.29852548 174.99730763 -295.375 167.5 C-295.10703613 166.45320068 -294.83907227 165.40640137 -294.56298828 164.32788086 C-286.51458214 133.75650589 -272.03553059 104.48787072 -252 80 C-251.20722656 79.00355469 -250.41445312 78.00710937 -249.59765625 76.98046875 C-237.52059698 62.04336486 -223.63856217 48.17972317 -208 37 C-207.37561035 36.5472168 -206.7512207 36.09443359 -206.10791016 35.62792969 C-196.47426172 28.67521948 -186.54092801 22.47969289 -176 17 C-175.22060059 16.59394531 -174.44120117 16.18789063 -173.63818359 15.76953125 C-119.83880684 -11.87988159 -57.87497005 -15.98809291 0 0 Z " fill="#5F7FD3" transform="translate(323,30)"/>
<path d="M0 0 C0.33 0 0.66 0 1 0 C1.19139946 2.16311767 1.32587583 4.33130181 1.4375 6.5 C1.51871094 7.7065625 1.59992188 8.913125 1.68359375 10.15625 C0.70062012 15.68337032 -2.07882187 18.13690424 -6 22 C-6.94236859 22.94378125 -7.88431804 23.88798113 -8.82592773 24.83251953 C-12.56912448 28.56686676 -16.34028358 32.27274156 -20.13061523 35.95922852 C-21.75911639 37.54560306 -23.37818548 39.14111478 -24.99609375 40.73828125 C-25.49910507 41.22267166 -26.00211639 41.70706207 -26.52037048 42.20613098 C-27.73833634 43.41490889 -28.87691141 44.7025961 -30 46 C-30 46.99 -30 47.98 -30 49 C-30.66 49 -31.32 49 -32 49 C-32 49.66 -32 50.32 -32 51 C-33.36108398 52.35302734 -33.36108398 52.35302734 -35.30859375 53.9609375 C-40.7839173 58.62371579 -45.9277458 63.5924475 -51.0625 68.625 C-51.55097412 69.09035156 -52.03944824 69.55570312 -52.54272461 70.03515625 C-53.97098463 71.39680365 -55.37845119 72.78015816 -56.78515625 74.1640625 C-58.03631226 75.37763428 -58.03631226 75.37763428 -59.31274414 76.61572266 C-61.28370815 78.87483804 -61.28370815 78.87483804 -60.84545898 81.64770508 C-51.88950662 106.56558005 -23.50319157 132.92855418 -3 149 C-2.10547119 149.71712158 -2.10547119 149.71712158 -1.19287109 150.44873047 C14.39645837 162.93990242 31.07810892 173.65113228 49.18066406 182.13232422 C50.91651201 182.960183 52.62716801 183.84025889 54.3359375 184.72265625 C73.8456664 194.52216539 95.6082121 200.0967313 117 204 C117.84481934 204.16226074 118.68963867 204.32452148 119.56005859 204.49169922 C130.83332715 206.61323684 141.9701336 207.31432513 153.4375 207.4375 C154.68869629 207.45981689 155.93989258 207.48213379 157.22900391 207.50512695 C165.91147236 207.48791562 165.91147236 207.48791562 173 203 C172.10228669 206.01958113 171.4122697 207.67480783 168.91015625 209.6484375 C165.25106771 211.34782627 162.07453001 211.40905378 158.125 211.3125 C157.34253906 211.30049561 156.56007813 211.28849121 155.75390625 211.27612305 C115.73906641 210.35637663 77.3937777 200.44829531 41.92333984 181.99414062 C40.06812004 181.03521006 38.20202033 180.10159843 36.33203125 179.171875 C18.24536532 170.03396172 2.26679595 157.7274941 -12.66015625 144.12109375 C-14.78804815 142.19213665 -16.94720859 140.30963647 -19.125 138.4375 C-26.93471005 131.59813469 -33.51220143 124.09040639 -40 116 C-41.5411676 114.14541849 -43.08282896 112.29124719 -44.625 110.4375 C-51.01046759 102.59878807 -56.49213953 94.33532349 -61.8125 85.75 C-62.29315918 84.98099365 -62.77381836 84.2119873 -63.26904297 83.41967773 C-65.74791956 79.36873404 -67.72715428 75.62050354 -69 71 C-67.33333333 72.66666667 -65.66666667 74.33333333 -64 76 C-63.22398437 75.21874756 -62.44796875 74.43749512 -61.6484375 73.63256836 C-58.73618447 70.70205392 -55.82049089 67.7749825 -52.90380859 64.84887695 C-51.6480018 63.58807785 -50.39309836 62.32637824 -49.13916016 61.0637207 C-37.27738831 49.12161017 -37.27738831 49.12161017 -31.09228516 43.86303711 C-26.50326205 39.77682529 -22.2154784 35.3622641 -17.88012695 31.01049805 C-16.17707773 29.30204466 -14.46869013 27.59905872 -12.75976562 25.89648438 C-11.66634554 24.80240417 -10.57323532 23.70801418 -9.48046875 22.61328125 C-8.97420456 22.10904129 -8.46794037 21.60480133 -7.94633484 21.08528137 C-2.9629701 16.06880949 -0.67156683 13.43133657 -0.3125 6.25 C-0.24675781 5.07953125 -0.18101562 3.9090625 -0.11328125 2.703125 C-0.07589844 1.81109375 -0.03851563 0.9190625 0 0 Z " fill="#B7C1D5" transform="translate(219,182)"/>
<path d="M0 0 C7.39057117 -0.19972118 14.35209042 0.24848421 21.625 1.5625 C23.09610229 1.82595215 23.09610229 1.82595215 24.59692383 2.09472656 C62.56982064 9.24298998 97.73311216 24.96817364 128 49 C128.97582031 49.77085938 129.95164062 50.54171875 130.95703125 51.3359375 C145.91279989 63.4342645 159.80402729 77.33870743 171 93 C171.6791748 93.93658447 171.6791748 93.93658447 172.37207031 94.89208984 C179.32478052 104.52573828 185.52030711 114.45907199 191 125 C191.40605469 125.77939941 191.81210937 126.55879883 192.23046875 127.36181641 C200.96364457 144.35456121 212.72577673 167.45285737 212 187 C210.4475237 184.11913319 209.47159991 181.38744135 208.66796875 178.21875 C208.42949219 177.30037354 208.19101562 176.38199707 207.9453125 175.43579102 C207.69523438 174.46697998 207.44515625 173.49816895 207.1875 172.5 C205.29683076 165.37943991 203.30188451 158.5390727 200.25390625 151.8125 C199.35715723 149.80110033 198.53991379 147.75350444 197.77734375 145.6875 C188.72531957 121.19689231 173.00833565 98.51418854 155.29296875 79.48046875 C153.33731934 77.36490252 151.47434119 75.20756709 149.625 73 C141.27983446 63.44595534 131.25930501 55.39394534 121 48 C120.36416992 47.54012695 119.72833984 47.08025391 119.07324219 46.60644531 C86.50101143 23.33156151 46.29313751 6.21307005 6 4 C6 3.34 6 2.68 6 2 C3.03 1.505 3.03 1.505 0 1 C0 0.67 0 0.34 0 0 Z " fill="#5578CF" transform="translate(274,22)"/>
<path d="M0 0 C0.99 0.66 1.98 1.32 3 2 C3.30791033 4.51083801 3.41993383 6.77755677 3.40405273 9.29199219 C3.41091599 10.04342499 3.41777924 10.79485779 3.42485046 11.56906128 C3.44320249 14.06185632 3.43926759 16.55402666 3.43359375 19.046875 C3.43815318 20.77842413 3.44345804 22.50997145 3.44947815 24.24151611 C3.45842695 27.87658012 3.45596806 31.51142469 3.44604492 35.14648438 C3.43458229 39.79828523 3.4547157 44.44932394 3.48396206 49.10102463 C3.50234235 52.68020423 3.50202747 56.25920208 3.49632454 59.83841705 C3.49617139 61.55277827 3.50221052 63.26715186 3.51461601 64.9814682 C3.52955045 67.38493474 3.51883048 69.78700579 3.50170898 72.19042969 C3.51137695 72.89507355 3.52104492 73.59971741 3.53100586 74.32571411 C3.45662046 79.33052219 2.10033304 82.12643415 -1 86 C-6.28772781 90.87538206 -11.31997219 90.5136999 -18.125 90.3125 C-19.11371094 90.30283203 -20.10242188 90.29316406 -21.12109375 90.28320312 C-25.26659779 90.21869258 -28.98687302 90.06331598 -33 89 C-36.59276039 88.69815782 -40.18604192 88.49274045 -43.78515625 88.28125 C-47 88 -47 88 -50 87 C-51.56118428 86.93259135 -53.1250252 86.91485544 -54.6875 86.9375 C-55.49574219 86.94652344 -56.30398438 86.95554687 -57.13671875 86.96484375 C-57.75160156 86.97644531 -58.36648438 86.98804688 -59 87 C-59 86.34 -59 85.68 -59 85 C-59.93972656 84.92652344 -59.93972656 84.92652344 -60.8984375 84.8515625 C-61.71570313 84.77679688 -62.53296875 84.70203125 -63.375 84.625 C-64.18710937 84.55539062 -64.99921875 84.48578125 -65.8359375 84.4140625 C-68 84 -68 84 -70 82 C-63.02979839 82.64024545 -56.11588462 83.51101519 -49.1875 84.5 C-37.94574827 86.05449131 -26.85038469 87.0649147 -15.5 87.25 C-14.73333008 87.27151123 -13.96666016 87.29302246 -13.17675781 87.31518555 C-8.595515 87.34203272 -5.56997959 86.9572219 -2 84 C0.52830961 80.32973273 0.26907005 76.48952619 0.22705078 72.20214844 C0.22734283 71.42127869 0.22763489 70.64040894 0.22793579 69.83587646 C0.2265448 67.26026212 0.21099452 64.68493868 0.1953125 62.109375 C0.19158155 60.32147378 0.18873496 58.5335705 0.18673706 56.7456665 C0.17910707 52.04384703 0.159464 47.34215144 0.1373291 42.64038086 C0.11685704 37.84100012 0.10773243 33.04159933 0.09765625 28.2421875 C0.07621753 18.82807062 0.0420892 9.41404562 0 0 Z " fill="#35559E" transform="translate(392,305)"/>
<path d="M0 0 C0.33 0 0.66 0 1 0 C1.19139946 2.16311767 1.32587583 4.33130181 1.4375 6.5 C1.51871094 7.7065625 1.59992188 8.913125 1.68359375 10.15625 C0.70062012 15.68337032 -2.07882187 18.13690424 -6 22 C-6.94236859 22.94378125 -7.88431804 23.88798113 -8.82592773 24.83251953 C-12.56912448 28.56686676 -16.34028358 32.27274156 -20.13061523 35.95922852 C-21.75911639 37.54560306 -23.37818548 39.14111478 -24.99609375 40.73828125 C-25.49910507 41.22267166 -26.00211639 41.70706207 -26.52037048 42.20613098 C-27.73833634 43.41490889 -28.87691141 44.7025961 -30 46 C-30 46.99 -30 47.98 -30 49 C-30.66 49 -31.32 49 -32 49 C-32 49.66 -32 50.32 -32 51 C-33.36767578 52.35083008 -33.36767578 52.35083008 -35.3203125 53.95703125 C-40.77556433 58.59844317 -45.81083873 63.6268653 -50.875 68.6875 C-51.83323543 69.63356272 -52.79156822 70.57952683 -53.75 71.52539062 C-54.65492188 72.42837891 -55.55984375 73.33136719 -56.4921875 74.26171875 C-57.71977783 75.48314575 -57.71977783 75.48314575 -58.97216797 76.72924805 C-60.80062176 78.77673765 -61.94129886 80.48855361 -63 83 C-63.81928886 81.75443908 -64.63015186 80.50333365 -65.4375 79.25 C-66.11619141 78.20585937 -66.11619141 78.20585937 -66.80859375 77.140625 C-67.9608009 75.07042986 -68.54676982 73.31303676 -69 71 C-67.33333333 72.66666667 -65.66666667 74.33333333 -64 76 C-63.22398437 75.21874756 -62.44796875 74.43749512 -61.6484375 73.63256836 C-58.73618447 70.70205392 -55.82049089 67.7749825 -52.90380859 64.84887695 C-51.6480018 63.58807785 -50.39309836 62.32637824 -49.13916016 61.0637207 C-37.27738831 49.12161017 -37.27738831 49.12161017 -31.09228516 43.86303711 C-26.50326205 39.77682529 -22.2154784 35.3622641 -17.88012695 31.01049805 C-16.17707773 29.30204466 -14.46869013 27.59905872 -12.75976562 25.89648438 C-11.66634554 24.80240417 -10.57323532 23.70801418 -9.48046875 22.61328125 C-8.97420456 22.10904129 -8.46794037 21.60480133 -7.94633484 21.08528137 C-2.9629701 16.06880949 -0.67156683 13.43133657 -0.3125 6.25 C-0.24675781 5.07953125 -0.18101562 3.9090625 -0.11328125 2.703125 C-0.07589844 1.81109375 -0.03851563 0.9190625 0 0 Z " fill="#D0D2D1" transform="translate(219,182)"/>
<path d="M0 0 C0.66 0 1.32 0 2 0 C2.12117188 0.72445312 2.24234375 1.44890625 2.3671875 2.1953125 C3.40138856 8.23682173 3.40138856 8.23682173 5.0625 14.125 C6.09799704 17.30052426 6.41021125 20.22009858 6.74438477 23.52978516 C6.90818566 25.11272441 7.09299738 26.69371425 7.30444336 28.27099609 C8.23558567 35.56879406 9.02165996 42.86765307 4.40625 49.0390625 C1.52189071 52.3155655 -1.64786923 55.25612733 -4.91552734 58.14550781 C-7.8123097 60.72268734 -10.58691567 63.41381876 -13.34936523 66.13378906 C-14.67476235 67.43666225 -16.01631997 68.72334613 -17.37524414 69.99121094 C-20.91240325 73.29771562 -20.91240325 73.29771562 -22.56640625 77.7109375 C-21.9490358 80.20596567 -21.1989233 81.53443774 -19.5625 83.5 C-17.3909672 86.30336296 -16.32845133 88.38703539 -16 92 C-15.34 92 -14.68 92 -14 92 C-12.02 95.465 -12.02 95.465 -10 99 C-9.34 99 -8.68 99 -8 99 C-7.87625 99.556875 -7.7525 100.11375 -7.625 100.6875 C-6.94023145 103.22114364 -6.00866237 105.57921032 -5 108 C-8.95871257 104.28826594 -11.97820921 100.41315946 -14.9375 95.875 C-15.36772461 95.21846436 -15.79794922 94.56192871 -16.24121094 93.88549805 C-24.70481833 80.83928853 -24.70481833 80.83928853 -26 77 C-24.86023479 74.13734741 -23.39980378 72.1554217 -21.21850586 70.00732422 C-20.38270241 69.1765889 -20.38270241 69.1765889 -19.53001404 68.32907104 C-18.63150475 67.45075119 -18.63150475 67.45075119 -17.71484375 66.5546875 C-17.09855606 65.94360138 -16.48226837 65.33251526 -15.8473053 64.70291138 C-13.88206676 62.75545618 -11.91026236 60.81483091 -9.9375 58.875 C-7.96205725 56.92716399 -5.98808649 54.97789254 -4.01698303 53.02566528 C-2.79106939 51.81202071 -1.56249271 50.60105915 -0.33103943 49.39303589 C3.88840244 45.22333106 5.18549785 43.38914383 5.375 37.5 C5.35232596 26.65047149 2.70758846 16.0727013 0.45898438 5.50512695 C0 3 0 3 0 0 Z " fill="#3A5692" transform="translate(214,153)"/>
<path d="M0 0 C26.07 0 52.14 0 79 0 C79 0.66 79 1.32 79 2 C79.99 2.495 79.99 2.495 81 3 C80.34 3.33 79.68 3.66 79 4 C78.01 3.505 78.01 3.505 77 3 C74.55977066 2.87796382 72.14613824 2.81439143 69.70458984 2.79467773 C68.95327286 2.78477814 68.20195587 2.77487854 67.4278717 2.76467896 C64.93892594 2.73303477 62.44996107 2.70829505 59.9609375 2.68359375 C58.23743182 2.66302674 56.51393121 2.64203033 54.79043579 2.62062073 C50.2497976 2.56537393 45.7091137 2.51597617 41.168396 2.46777344 C36.53670168 2.41757744 31.90507391 2.36188146 27.2734375 2.30664062 C18.18234849 2.19902716 9.09120175 2.09758928 0 2 C0 1.34 0 0.68 0 0 Z " fill="#4362B0" transform="translate(127,117)"/>
<path d="M0 0 C1.12741356 -0.00043808 1.12741356 -0.00043808 2.27760315 -0.00088501 C4.75582523 0.00050559 7.23374466 0.01605395 9.71191406 0.03173828 C11.43255448 0.03546937 13.15319703 0.03831589 14.87384033 0.04031372 C19.39811082 0.0479426 23.9222525 0.0675847 28.44647217 0.08972168 C33.06488299 0.11019614 37.68331467 0.11931886 42.30175781 0.12939453 C51.3604081 0.15083129 60.41896286 0.18495827 69.47753906 0.22705078 C69.47753906 0.55705078 69.47753906 0.88705078 69.47753906 1.22705078 C44.72753906 1.22705078 19.97753906 1.22705078 -5.52246094 1.22705078 C-5.85246094 2.21705078 -6.18246094 3.20705078 -6.52246094 4.22705078 C-7.51503906 4.82904297 -8.50761719 5.43103516 -9.53027344 6.05126953 C-11.98233186 8.00573451 -12.48314213 9.02996445 -13.10742188 12.15917969 C-13.33821677 15.79599434 -13.40500167 19.39548946 -13.39746094 23.03955078 C-13.41808594 24.30476563 -13.43871094 25.56998047 -13.45996094 26.87353516 C-13.50703258 29.9920312 -13.52690409 33.10827224 -13.52246094 36.22705078 C-13.85246094 36.22705078 -14.18246094 36.22705078 -14.52246094 36.22705078 C-15.69843809 30.5670632 -15.77770163 24.98352014 -15.83496094 19.22705078 C-15.86396484 18.25509766 -15.89296875 17.28314453 -15.92285156 16.28173828 C-15.97457738 10.44069965 -15.64828042 6.73582724 -11.52246094 2.22705078 C-7.90704294 -0.23806703 -4.21846089 -0.04298746 0 0 Z " fill="#E2EFFC" transform="translate(134.5224609375,118.77294921875)"/>
<path d="M0 0 C0.33 0 0.66 0 1 0 C1.19139946 2.16311767 1.32587583 4.33130181 1.4375 6.5 C1.51871094 7.7065625 1.59992188 8.913125 1.68359375 10.15625 C0.70062012 15.68337032 -2.07882187 18.13690424 -6 22 C-6.94236859 22.94378125 -7.88431804 23.88798113 -8.82592773 24.83251953 C-12.56912448 28.56686676 -16.34028358 32.27274156 -20.13061523 35.95922852 C-21.75911639 37.54560306 -23.37818548 39.14111478 -24.99609375 40.73828125 C-25.49910507 41.22267166 -26.00211639 41.70706207 -26.52037048 42.20613098 C-27.73833634 43.41490889 -28.87691141 44.7025961 -30 46 C-30 46.99 -30 47.98 -30 49 C-30.66 49 -31.32 49 -32 49 C-31.67511573 43.7831316 -28.67714211 41.17404794 -25.1015625 37.74609375 C-24.51079926 37.16336197 -23.92003601 36.58063019 -23.31137085 35.98023987 C-21.42514762 34.12296247 -19.52580676 32.27983891 -17.625 30.4375 C-15.7339769 28.58908269 -13.84581694 26.73783 -11.96005249 24.88404846 C-10.78726475 23.73283288 -9.61099521 22.58515066 -8.43081665 21.44151306 C-3.17106503 16.30893317 -0.68478422 13.6956843 -0.3125 6.25 C-0.24675781 5.07953125 -0.18101562 3.9090625 -0.11328125 2.703125 C-0.07589844 1.81109375 -0.03851563 0.9190625 0 0 Z " fill="#B7C3D9" transform="translate(219,182)"/>
<path d="M0 0 C2.125 0.375 2.125 0.375 4 1 C3.21625 1.4125 2.4325 1.825 1.625 2.25 C-1.18949541 4.12633027 -1.80762365 4.93296018 -3 8 C-3.28883962 10.29806806 -3.28883962 10.29806806 -3.23046875 12.74609375 C-3.22917969 13.66052246 -3.22789063 14.57495117 -3.2265625 15.51708984 C-3.21367188 16.4808252 -3.20078125 17.44456055 -3.1875 18.4375 C-3.18105469 19.41928223 -3.17460938 20.40106445 -3.16796875 21.41259766 C-3.09179283 28.64335913 -2.76013638 35.80585213 -2 43 C-2.33 43 -2.66 43 -3 43 C-3.98248524 38.9472484 -4.08159574 35.16138263 -4 31 C-4.66 31 -5.32 31 -6 31 C-6.93714922 27.88248002 -7.05686895 25.25850091 -6.87890625 22.015625 C-6.83056641 21.08105469 -6.78222656 20.14648438 -6.73242188 19.18359375 C-6.67634766 18.21550781 -6.62027344 17.24742187 -6.5625 16.25 C-6.51029297 15.26644531 -6.45808594 14.28289062 -6.40429688 13.26953125 C-6.27488563 10.84601151 -6.13993095 8.42293136 -6 6 C-5.34 6 -4.68 6 -4 6 C-3.71125 5.38125 -3.4225 4.7625 -3.125 4.125 C-2 2 -2 2 0 0 Z " fill="#4C6BB9" transform="translate(123,119)"/>
<path d="M0 0 C2.75492281 3.2025013 3.69085331 5.98354111 4.6875 10.0625 C6.82375043 17.97577006 9.9362741 25.33906428 13.1953125 32.84765625 C13.50887695 33.57227051 13.82244141 34.29688477 14.14550781 35.04345703 C14.85104688 36.65893992 15.57538768 38.26619745 16.3046875 39.87109375 C17 42 17 42 16 45 C11.04673493 35.30424709 6.94526218 25.52328655 3.5 15.1875 C3.15001953 14.14400391 2.80003906 13.10050781 2.43945312 12.02539062 C1.05509502 7.77204089 0 4.5130578 0 0 Z " fill="#2F55AC" transform="translate(29,316)"/>
<path d="M0 0 C0.66 0.33 1.32 0.66 2 1 C-2.31047399 5.40938169 -6.63394745 9.80543702 -10.9699707 14.18969727 C-12.44301762 15.68285404 -13.91245384 17.17958191 -15.37817383 18.67993164 C-17.48619525 20.83649538 -19.6068877 22.97986369 -21.73046875 25.12109375 C-22.38274948 25.79401962 -23.03503021 26.4669455 -23.70707703 27.16026306 C-28.28513609 31.74055204 -28.28513609 31.74055204 -31.80981445 33.01977539 C-34.71388827 32.99355424 -35.90942261 31.9357198 -38 30 C-37.67 29.34 -37.34 28.68 -37 28 C-36.13375 28.5259375 -36.13375 28.5259375 -35.25 29.0625 C-32.5452811 30.18946621 -31.71267391 29.96676539 -29 29 C-27.36386584 27.79341851 -27.36386584 27.79341851 -25.88378906 26.22436523 C-25.30348938 25.64383896 -24.7231897 25.06331268 -24.12530518 24.4651947 C-23.51161072 23.83601639 -22.89791626 23.20683807 -22.265625 22.55859375 C-21.62759949 21.91632339 -20.98957397 21.27405304 -20.33221436 20.61231995 C-18.29765882 18.56098274 -16.27378621 16.49945727 -14.25 14.4375 C-12.87178509 13.04423766 -11.49288675 11.65165102 -10.11328125 10.25976562 C-6.73420954 6.84763135 -3.36468136 3.42632293 0 0 Z " fill="#DAE6FC" transform="translate(315,293)"/>
<path d="M0 0 C0.66 0 1.32 0 2 0 C2.12117187 0.72445312 2.24234375 1.44890625 2.3671875 2.1953125 C3.40138856 8.23682173 3.40138856 8.23682173 5.0625 14.125 C7.85840076 22.69909567 7.1056295 32.0919119 7 41 C6.67 41 6.34 41 6 41 C5.90203125 40.10023438 5.8040625 39.20046875 5.703125 38.2734375 C4.60916803 28.86163526 3.09214222 19.58554656 1.32128906 10.27685547 C1.15081055 9.37467285 0.98033203 8.47249023 0.8046875 7.54296875 C0.64983887 6.73883545 0.49499023 5.93470215 0.33544922 5.10620117 C0 3 0 3 0 0 Z " fill="#4C66A1" transform="translate(214,153)"/>
<path d="M0 0 C-0.47482435 4.27341914 -3.03077413 6.10319428 -6 9 C-6.7063208 10.31275784 -7.38205646 11.64339836 -8 13 C-8.81928886 11.75443908 -9.63015186 10.50333365 -10.4375 9.25 C-10.88996094 8.55390625 -11.34242188 7.8578125 -11.80859375 7.140625 C-12.9608009 5.07042986 -13.54676982 3.31303676 -14 1 C-12.33333333 2.66666667 -10.66666667 4.33333333 -9 6 C-8.60167969 5.566875 -8.20335937 5.13375 -7.79296875 4.6875 C-7.26316406 4.130625 -6.73335937 3.57375 -6.1875 3 C-5.40439453 2.1646875 -5.40439453 2.1646875 -4.60546875 1.3125 C-3 0 -3 0 0 0 Z " fill="#C5CAD3" transform="translate(164,252)"/>
<path d="M0 0 C4.54677181 3.71165046 8.44377886 7.52786585 12.25 11.98828125 C17.04812086 17.50397822 22.40161486 22.31563692 28 27 C22.31920437 27 18.05928518 21.65449691 14 18 C11.52189395 15.44087895 9.26274714 12.74877875 7 10 C5.10041169 7.88310179 3.19526049 5.77147421 1.28515625 3.6640625 C0 2 0 2 0 0 Z " fill="#3E5DA8" transform="translate(181,301)"/>
<path d="M0 0 C11.55 0.33 23.1 0.66 35 1 C35 1.33 35 1.66 35 2 C30.83766921 2.1685572 26.67512587 2.32900921 22.51220703 2.48217773 C21.09806049 2.53532535 19.68399324 2.59063076 18.27001953 2.64819336 C16.22966607 2.73087153 14.18914706 2.80561177 12.1484375 2.87890625 C10.92302246 2.9260376 9.69760742 2.97316895 8.43505859 3.02172852 C5.1660819 3.00105055 2.20061501 2.63626684 -1 2 C-0.67 1.34 -0.34 0.68 0 0 Z " fill="#CACED7" transform="translate(349,389)"/>
<path d="M0 0 C3.09592835 3.5087188 4.74194623 6.49197399 6 11 C6.66 11 7.32 11 8 11 C9.32 13.31 10.64 15.62 12 18 C12.66 18 13.32 18 14 18 C14.12375 18.556875 14.2475 19.11375 14.375 19.6875 C15.05976855 22.22114364 15.99133763 24.57921032 17 27 C12.94146505 23.21057937 9.90197995 19.20479494 6.875 14.5625 C6.44574219 13.91990234 6.01648438 13.27730469 5.57421875 12.61523438 C3.09489644 8.85810748 0.92881658 5.07824945 -1 1 C-0.67 0.67 -0.34 0.34 0 0 Z " fill="#425D99" transform="translate(192,234)"/>
<path d="M0 0 C3.29384675 1.94370075 6.49252161 3.97105226 9.64453125 6.13671875 C10.48564453 6.71357422 11.32675781 7.29042969 12.19335938 7.88476562 C13.05767578 8.47966797 13.92199219 9.07457031 14.8125 9.6875 C15.69615234 10.29400391 16.57980469 10.90050781 17.49023438 11.52539062 C19.66105326 13.01562846 21.83094145 14.50720167 24 16 C23.01 16.33 22.02 16.66 21 17 C19.63461347 16.04422943 18.30518475 15.03647024 17 14 C16.175 13.690625 15.35 13.38125 14.5 13.0625 C11.5588442 11.81250878 10.22679883 10.29042165 8 8 C5.89469095 6.41797586 3.76231829 4.88367675 1.609375 3.3671875 C1.07828125 2.91601562 0.5471875 2.46484375 0 2 C0 1.34 0 0.68 0 0 Z " fill="#3B59A2" transform="translate(220,338)"/>
<path d="M0 0 C1.32 0 2.64 0 4 0 C5.3726682 1.97321053 6.70427617 3.97543152 8 6 C9.93330603 7.09166275 9.93330603 7.09166275 12 8 C14.75 10.5 14.75 10.5 17 13 C17 13.66 17 14.32 17 15 C18.32 15.66 19.64 16.32 21 17 C20.67 17.66 20.34 18.32 20 19 C17.78563304 17.15267195 15.57865917 15.29753023 13.375 13.4375 C12.75753906 12.92380859 12.14007813 12.41011719 11.50390625 11.88085938 C7.21693969 8.24821929 3.52837131 4.37161443 0 0 Z " fill="#425EA3" transform="translate(225,280)"/>
<path d="M0 0 C3.57480389 3.57480389 3.70188268 9.03957825 4.6875 13.875 C4.92533203 14.97714844 5.16316406 16.07929688 5.40820312 17.21484375 C5.62798828 18.27574219 5.84777344 19.33664063 6.07421875 20.4296875 C6.27619873 21.40147949 6.47817871 22.37327148 6.6862793 23.37451172 C6.99358421 25.94630707 6.82099932 27.56897968 6 30 C2.72875806 19.92071209 0.20410022 10.66887503 0 0 Z " fill="#5472B7" transform="translate(122,175)"/>
<path d="M0 0 C0.66 0 1.32 0 2 0 C4.36629197 3.54943795 4.34814002 5.46871313 4.5625 9.6875 C4.78940064 13.75070215 5.05089231 17.73048864 5.6875 21.75 C5.790625 22.8225 5.89375 23.895 6 25 C5.34 25.66 4.68 26.32 4 27 C3.91435791 26.32420898 3.82871582 25.64841797 3.74047852 24.95214844 C3.35029735 21.8844445 2.95643852 18.8172236 2.5625 15.75 C2.42779297 14.68652344 2.29308594 13.62304688 2.15429688 12.52734375 C2.02216797 11.50253906 1.89003906 10.47773438 1.75390625 9.421875 C1.63345947 8.47924805 1.5130127 7.53662109 1.38891602 6.56542969 C1.04894631 4.32286742 0.59605926 2.18630037 0 0 Z " fill="#4A649F" transform="translate(209,123)"/>
<path d="M0 0 C3.55793245 1.18597748 4.19995289 2.27776368 6.375 5.25 C8.41088245 7.97169878 10.38204859 10.50072239 12.875 12.8125 C14.97847578 14.97784271 15.6718922 16.04702976 16 19 C12.49592366 15.53373744 9.08829306 12.00314485 5.75 8.375 C4.44289062 6.96347656 4.44289062 6.96347656 3.109375 5.5234375 C1 3 1 3 0 0 Z " fill="#445FA0" transform="translate(209,261)"/>
<path d="M0 0 C2.96503513 2.96503513 3.81603603 6.52963443 5.1875 10.4375 C5.47302734 11.21416016 5.75855469 11.99082031 6.05273438 12.79101562 C6.31763672 13.53931641 6.58253906 14.28761719 6.85546875 15.05859375 C7.09934326 15.74236084 7.34321777 16.42612793 7.59448242 17.13061523 C8 19 8 19 7 22 C4.22442315 18.74724662 3.04227177 15.63818038 1.8125 11.5625 C1.46832031 10.45003906 1.12414062 9.33757812 0.76953125 8.19140625 C0.07299916 5.30274272 -0.15992961 2.95042564 0 0 Z " fill="#4D6BB4" transform="translate(129,205)"/>
<path d="M0 0 C1.4540625 0.0309375 1.4540625 0.0309375 2.9375 0.0625 C-0.03078999 2.04135999 -2.83697054 3.32114997 -6.125 4.6875 C-7.18847656 5.13351562 -8.25195312 5.57953125 -9.34765625 6.0390625 C-12.0625 7.0625 -12.0625 7.0625 -14.0625 7.0625 C-13.7325 6.0725 -13.4025 5.0825 -13.0625 4.0625 C-11.03125 3.1484375 -11.03125 3.1484375 -8.5625 2.4375 C-0.30112297 0.00614537 -0.30112297 0.00614537 0 0 Z " fill="#2C4FA2" transform="translate(348.0625,470.9375)"/>
<path d="M0 0 C0.33 0 0.66 0 1 0 C2.0735426 12.13273543 2.0735426 12.13273543 -0.55859375 16.7109375 C-2.28157337 18.63152243 -4.00745607 20.36326748 -6 22 C-6 21.01 -6 20.02 -6 19 C-5.195625 18.21625 -4.39125 17.4325 -3.5625 16.625 C0.54851253 12.07269234 -0.09493905 5.81717432 0 0 Z " fill="#C0CCE1" transform="translate(219,182)"/>
<path d="M0 0 C0.66 0.33 1.32 0.66 2 1 C0.92492371 2.29854721 -0.16043736 3.58858361 -1.25 4.875 C-1.85328125 5.59429687 -2.4565625 6.31359375 -3.078125 7.0546875 C-4.97087634 8.97052118 -6.53657727 9.96449045 -9 11 C-8.67 10.01 -8.34 9.02 -8 8 C-7.34 8 -6.68 8 -6 8 C-5.7525 7.4225 -5.505 6.845 -5.25 6.25 C-3.83316683 3.6997003 -2.12372463 1.98214299 0 0 Z " fill="#466AC8" transform="translate(94,88)"/>
<path d="M0 0 C1.81612488 0.95144598 3.62781081 1.91136933 5.4375 2.875 C6.44683594 3.40867187 7.45617187 3.94234375 8.49609375 4.4921875 C11 6 11 6 12 8 C7.15409462 7.55946315 3.51858133 5.25494123 0 2 C0 1.34 0 0.68 0 0 Z " fill="#D5DFF4" transform="translate(264,313)"/>
<path d="M0 0 C2.475 0.495 2.475 0.495 5 1 C5 1.66 5 2.32 5 3 C5.556875 3.103125 6.11375 3.20625 6.6875 3.3125 C9.4769101 4.14178408 11.6139064 5.34299056 14 7 C14 7.66 14 8.32 14 9 C10.40241608 7.67726488 7.36262865 6.0805802 4.1875 3.9375 C3.39730469 3.41027344 2.60710937 2.88304687 1.79296875 2.33984375 C1.20128906 1.89769531 0.60960937 1.45554687 0 1 C0 0.67 0 0.34 0 0 Z " fill="#3D5CA6" transform="translate(261,310)"/>
<path d="M0 0 C3.9341561 5.90123415 4.27522305 11.11942374 4 18 C3.67 18 3.34 18 3 18 C2.49490792 15.75113762 1.99610821 13.50086131 1.5 11.25 C1.2215625 9.99703125 0.943125 8.7440625 0.65625 7.453125 C0 4 0 4 0 0 Z " fill="#C7D3EF" transform="translate(121,164)"/>
<path d="M0 0 C3.59634744 3.49359465 6.83451967 7.11098131 10 11 C9.01 11 8.02 11 7 11 C6.67 10.01 6.34 9.02 6 8 C5.34 8 4.68 8 4 8 C4 7.34 4 6.68 4 6 C3.34 6 2.68 6 2 6 C2 5.01 2 4.02 2 3 C1.34 3 0.68 3 0 3 C0 2.01 0 1.02 0 0 Z " fill="#D2DBEF" transform="translate(211,265)"/>
<path d="M0 0 C9.59453303 2.89066059 9.59453303 2.89066059 13 6 C7.57689095 5.56615128 4.29855944 4.35497322 0 1 C0 0.67 0 0.34 0 0 Z " fill="#3B5BA5" transform="translate(266,367)"/>
<path d="M0 0 C0.66 0 1.32 0 2 0 C4.4294516 3.6441774 4.16179575 5.71241272 4 10 C3.34 10 2.68 10 2 10 C1.34 6.7 0.68 3.4 0 0 Z " fill="#3E5DA6" transform="translate(209,123)"/>
<path d="M0 0 C4.41889613 1.35021826 6.34345343 3.26115668 9 7 C6.62051228 6.82374165 5.29774151 6.30280227 3.62109375 4.59765625 C2.37884514 3.09350908 1.18623944 1.54870149 0 0 Z " fill="#B9C1D1" transform="translate(203,322)"/>
<path d="M0 0 C3.3 0.33 6.6 0.66 10 1 C8 3 8 3 4.375 3.125 C3.26125 3.08375 2.1475 3.0425 1 3 C0.67 2.01 0.34 1.02 0 0 Z " fill="#E4EEFC" transform="translate(346,296)"/>
<path d="M0 0 C2.74277578 3.19990508 4.6302836 6.00499382 6 10 C5.01 9.34 4.02 8.68 3 8 C3 7.34 3 6.68 3 6 C2.01 5.67 1.02 5.34 0 5 C0 3.35 0 1.7 0 0 Z " fill="#4462B0" transform="translate(152,259)"/>
</svg>
