<?xml version="1.0" standalone="no"?>
<!DOCTYPE svg PUBLIC "-//W3C//DTD SVG 20010904//EN"
 "http://www.w3.org/TR/2001/REC-SVG-20010904/DTD/svg10.dtd">
<svg version="1.0" xmlns="http://www.w3.org/2000/svg"
 width="245.000000pt" height="206.000000pt" viewBox="0 0 245.000000 206.000000"
 preserveAspectRatio="xMidYMid meet">

<g transform="translate(0.000000,206.000000) scale(0.100000,-0.100000)"
fill="#000000" stroke="none">
<path d="M1000 1844 c-332 -102 -407 -126 -449 -141 l-43 -17 5 -305 c4 -283
7 -314 30 -412 81 -338 291 -615 575 -758 l43 -22 77 41 c123 65 119 59 78
122 -58 87 -79 215 -50 293 5 13 -21 15 -193 15 -266 0 -243 -28 -243 288 0
230 1 243 20 262 11 11 33 23 49 26 27 6 29 9 35 76 13 144 98 228 228 228
132 -1 220 -97 222 -242 1 -54 3 -58 24 -58 72 0 92 -48 92 -217 l0 -128 100
0 c56 0 104 -4 108 -10 4 -5 18 -10 32 -10 23 0 26 6 44 80 15 67 19 134 23
410 l5 330 -319 98 c-175 53 -325 97 -333 96 -8 0 -80 -21 -160 -45z"/>
<path d="M1093 1420 c-42 -25 -63 -68 -63 -130 l0 -50 130 0 130 0 0 45 c0 25
-6 61 -14 80 -29 68 -118 95 -183 55z"/>
<path d="M1119 1045 c-14 -8 -32 -28 -39 -46 -12 -28 -11 -36 8 -73 12 -22 22
-58 22 -78 l0 -38 45 0 45 0 0 44 c0 28 6 48 16 57 43 35 34 108 -17 134 -34
18 -47 18 -80 0z"/>
<path d="M1588 883 c12 -2 30 -2 40 0 9 3 -1 5 -23 4 -22 0 -30 -2 -17 -4z"/>
<path d="M1437 849 c-69 -36 -157 -144 -157 -191 0 -7 11 10 24 37 29 62 83
118 144 150 26 13 43 24 37 24 -5 0 -27 -9 -48 -20z"/>
<path d="M1785 832 c29 -18 87 -78 113 -118 7 -10 6 -6 -2 11 -16 35 -109 125
-128 125 -7 0 1 -8 17 -18z"/>
<path d="M1648 613 l-108 -108 -53 53 -53 52 -29 -30 -29 -30 74 -75 c41 -41
75 -73 77 -71 2 2 -29 35 -69 74 l-73 71 25 26 24 25 56 -55 56 -55 79 83 c44
45 94 97 110 115 57 64 18 30 -87 -75z"/>
<path d="M1794 696 l18 -29 -138 -141 -139 -141 143 140 c78 77 142 145 142
151 0 6 -10 19 -22 30 l-22 19 18 -29z"/>
<path d="M1911 690 c0 -3 6 -27 14 -55 8 -30 14 -40 14 -25 0 20 -26 97 -28
80z"/>
<path d="M1942 550 c0 -19 2 -27 5 -17 2 9 2 25 0 35 -3 9 -5 1 -5 -18z"/>
<path d="M1931 494 c-5 -83 -85 -195 -175 -242 -44 -23 -63 -26 -141 -27 -49
0 -103 3 -120 8 -27 6 -28 6 -10 -5 13 -8 57 -13 120 -13 89 0 105 3 151 27
97 51 197 193 181 255 -4 15 -5 14 -6 -3z"/>
<path d="M1385 284 c36 -28 61 -36 30 -10 -16 14 -34 25 -40 25 -5 0 -1 -7 10
-15z"/>
</g>
</svg>
